<svg width="42" height="42" viewBox="0 0 42 42" fill="none" xmlns="http://www.w3.org/2000/svg">
<path fill-rule="evenodd" clip-rule="evenodd" d="M12.18 38.71C8.67996 38.71 5.73996 36.26 5.10996 32.97L3.42996 32.41C3.21996 32.27 3.07996 32.06 3.07996 31.85V9.8C3.07996 9.52 3.21996 9.31 3.42996 9.24L20.79 3.29C20.93 3.22 21.07 3.22 21.21 3.29L38.57 9.31C38.78 9.38 38.92 9.59 38.92 9.8V31.85C38.92 32.06 38.78 32.27 38.57 32.41C36.96 32.9 23.66 37.52 21.35 38.29C20.93 38.43 21 38.43 20.58 38.29C19.67 38.01 17.29 37.17 16.87 37.03C15.61 38.08 13.93 38.71 12.18 38.71ZM4.19996 10.57V14L10.99 16.31C11.69 16.59 11.34 17.64 10.64 17.36L4.19996 15.19V31.43L4.96996 31.71C4.82996 27.65 8.11996 24.29 12.18 24.29C18.27 24.29 21.56 31.43 17.71 36.12L20.44 37.03V16.17L4.19996 10.57ZM21.56 16.17V37.03L37.8 31.43V10.57L32.13 12.53V29.19C32.13 29.4 31.99 29.61 31.78 29.68L27.65 31.08C27.37 31.08 27.09 30.87 27.09 30.52V14.28L21.56 16.17ZM31.01 12.88L28.21 13.86V29.75L31.01 28.77V12.88ZM5.38996 9.8L21 15.19L26.04 13.44L11.48 7.7L5.38996 9.8ZM27.72 12.88L29.96 12.11L15.4 6.3L13.16 7.14L27.72 12.88ZM31.64 11.55L36.61 9.8L21 4.41L17.08 5.74L31.64 11.55ZM6.22996 32.76C6.78996 35.56 9.23996 37.59 12.18 37.59C15.54 37.59 18.27 34.86 18.27 31.5C18.27 28.14 15.54 25.41 12.18 25.41C8.32996 25.41 5.38996 29.05 6.22996 32.76ZM10.5 35.63C9.51996 35.63 8.67996 34.79 8.81996 33.74L8.95996 32.69C8.32996 31.99 7.48996 31.36 7.83996 30.24C8.25996 29.12 9.23996 29.12 10.22 28.98C10.64 28.07 10.99 27.16 12.18 27.16C13.37 27.16 13.65 28.07 14.14 28.98C15.12 29.12 16.1 29.12 16.45 30.24C16.87 31.36 16.03 31.99 15.33 32.69C15.47 33.67 15.82 34.65 14.84 35.35C13.86 36.05 13.09 35.42 12.18 35C11.62 35.28 10.99 35.63 10.5 35.63ZM12.18 28.28C11.97 28.28 11.83 28.35 11.69 28.56C10.78 30.24 11.27 29.89 9.30996 30.24C8.88996 30.31 8.74996 30.87 9.02996 31.15C10.36 32.55 10.22 31.99 9.93996 33.95C9.86996 34.37 10.36 34.65 10.71 34.44C12.46 33.67 11.9 33.6 13.65 34.44C14 34.65 14.42 34.37 14.42 33.95C14.14 31.99 13.93 32.55 15.26 31.15C15.61 30.87 15.4 30.31 14.98 30.24C13.16 29.89 13.51 30.24 12.67 28.56C12.53 28.35 12.39 28.28 12.18 28.28Z" fill="#2D1616"/>
<path fill-rule="evenodd" clip-rule="evenodd" d="M9.93995 33.95C9.86995 34.37 10.3599 34.65 10.7099 34.44C12.4599 33.67 11.9 33.6 13.65 34.44C13.9999 34.65 14.42 34.37 14.42 33.95C14.14 31.99 13.93 32.55 15.26 31.15C15.61 30.87 15.4 30.31 14.9799 30.24C13.16 29.89 13.5099 30.24 12.6699 28.56C12.5299 28.35 12.3899 28.28 12.1799 28.28C11.9699 28.28 11.8299 28.35 11.6899 28.56C10.7799 30.24 11.2699 29.89 9.30995 30.24C8.88995 30.31 8.74995 30.87 9.02995 31.15C10.3599 32.55 10.2199 31.99 9.93995 33.95Z" fill="white"/>
<path fill-rule="evenodd" clip-rule="evenodd" d="M12.1799 27.16C13.3699 27.16 13.6499 28.07 14.1399 28.98C15.1199 29.12 16.0999 29.12 16.4499 30.24C16.8699 31.36 16.0299 31.99 15.3299 32.69C15.4699 33.67 15.8199 34.65 14.8399 35.35C13.8599 36.05 13.0899 35.42 12.1799 35C11.6199 35.28 10.9899 35.63 10.4999 35.63C9.5199 35.63 8.6799 34.79 8.8199 33.74L8.9599 32.69C8.3299 31.99 7.4899 31.36 7.8399 30.24C8.2599 29.12 9.2399 29.12 10.2199 28.98C10.6399 28.07 10.9899 27.16 12.1799 27.16ZM12.1799 25.41C8.3299 25.41 5.3899 29.05 6.2299 32.76C6.7899 35.56 9.2399 37.59 12.1799 37.59C15.5399 37.59 18.2699 34.86 18.2699 31.5C18.2699 28.14 15.5399 25.41 12.1799 25.41Z" fill="#FFD946"/>
<path fill-rule="evenodd" clip-rule="evenodd" d="M12.18 24.29C18.27 24.29 21.56 31.43 17.71 36.12L20.44 37.03V16.17L4.19995 10.57V14L10.99 16.31C11.69 16.59 11.34 17.64 10.64 17.36L4.19995 15.19V31.43L4.96995 31.71C4.82995 27.65 8.11995 24.29 12.18 24.29Z" fill="#FF8300"/>
<path fill-rule="evenodd" clip-rule="evenodd" d="M5.39001 9.8L21 15.19L26.04 13.44L11.48 7.7L5.39001 9.8Z" fill="#FF8300"/>
<path fill-rule="evenodd" clip-rule="evenodd" d="M13.1599 7.14L27.7199 12.88L29.9599 12.11L15.3999 6.3L13.1599 7.14Z" fill="white"/>
<path fill-rule="evenodd" clip-rule="evenodd" d="M17.08 5.74L31.64 11.55L36.61 9.8L21 4.41L17.08 5.74Z" fill="#FF8300"/>
<path fill-rule="evenodd" clip-rule="evenodd" d="M32.1299 12.53V29.19C32.1299 29.4 31.9899 29.61 31.7799 29.68L27.6499 31.08C27.3699 31.08 27.0899 30.87 27.0899 30.52V14.28L21.5599 16.17V37.03L37.7999 31.43V10.57L32.1299 12.53Z" fill="#FF8300"/>
<path fill-rule="evenodd" clip-rule="evenodd" d="M31.01 28.77V12.88L28.21 13.86V29.75L31.01 28.77Z" fill="white"/>
</svg>
