<svg width="30" height="30" viewBox="0 0 30 30" fill="none" xmlns="http://www.w3.org/2000/svg">
<path d="M24.4312 20.625C24.8344 20.5969 25.1719 20.325 25.275 19.9313L28.0875 9.61875C28.2656 9 27.7687 8.41875 27.1406 8.4375L26.2125 8.48438C26.2312 8.775 26.25 9.075 26.25 9.375C26.25 14.5406 22.0406 18.75 16.875 18.75C11.7094 18.75 7.49999 14.6344 7.49999 9.32812L7.12499 9.34688L6.45937 8.01563C6.30937 7.69688 5.98124 7.5 5.62499 7.5H2.81249C1.57499 7.5 1.57499 9.375 2.81249 9.375H5.04374L5.68124 10.65L8.36249 20.4562L7.68749 21.4594C6.95624 22.5469 7.55624 24.1125 8.95312 24.3375C8.63437 24.7312 8.43749 25.2281 8.43749 25.7812C8.43749 27.075 9.48749 28.125 10.7812 28.125C12.075 28.125 13.125 27.075 13.125 25.7812C13.125 25.2563 12.9375 24.7687 12.6469 24.375H22.0406C21.75 24.7687 21.5625 25.2563 21.5625 25.7812C21.5625 27.075 22.6125 28.125 23.9062 28.125C25.2 28.125 26.25 27.075 26.25 25.7812C26.25 25.2563 26.0625 24.7687 25.7719 24.375H26.25C27.4875 24.375 27.4875 22.5 26.25 22.5H9.25312L9.89999 21.5344L24.4312 20.625ZM23.9062 25.3125C24.1687 25.3125 24.375 25.5187 24.375 25.7812C24.375 26.0438 24.1687 26.25 23.9062 26.25C23.6437 26.25 23.4375 26.0438 23.4375 25.7812C23.4375 25.5187 23.6437 25.3125 23.9062 25.3125ZM10.7812 25.3125C11.0437 25.3125 11.25 25.5187 11.25 25.7812C11.25 26.0438 11.0437 26.25 10.7812 26.25C10.5187 26.25 10.3125 26.0438 10.3125 25.7812C10.3125 25.5187 10.5187 25.3125 10.7812 25.3125Z" fill="#1E8308"/>
<path d="M16.875 1.875C12.7406 1.875 9.375 5.24063 9.375 9.375C9.375 13.5094 12.7406 16.875 16.875 16.875C21.0094 16.875 24.375 13.5094 24.375 9.375C24.375 5.24063 21.0094 1.875 16.875 1.875ZM20.3531 8.16563L16.6031 11.9156C16.2375 12.2812 15.6469 12.2812 15.2812 11.9156L13.4062 10.0406C12.525 9.15938 13.8562 7.8375 14.7281 8.71875L15.9375 9.92813L19.0219 6.84375C19.9031 5.9625 21.225 7.29375 20.3438 8.16563H20.3531Z" fill="#1E8308"/>
</svg>
