<svg width="40" height="40" viewBox="0 0 40 40" fill="none" xmlns="http://www.w3.org/2000/svg">
<g clip-path="url(#clip0_1143_2912)">
<path d="M8.27592 18.2812H5.93225V20.1611C5.93225 21.8694 6.83288 23.4512 8.30202 24.323L8.27592 18.2812Z" fill="#F0B582"/>
<path d="M31.7265 18.2812L31.7004 24.3229C33.1696 23.4511 34.0702 21.8693 34.0702 20.161V18.2812H31.7265Z" fill="#F0B582"/>
<path d="M14.7171 34.9844H25.2887V40H14.7171V34.9844Z" fill="#F0B582"/>
<path d="M29.9239 30.0602C29.1865 31.5197 28.2295 32.872 27.0682 34.0628C25.3458 35.8291 23.0416 37.3946 19.9947 38.1563C16.9479 37.3946 14.6436 35.8291 12.9212 34.0628C9.91356 30.9785 8.27598 26.8113 8.27598 22.5034V17.6563C8.27598 17.6563 7.93747 5.39102 19.9947 5.39102C32.052 5.39102 31.7135 17.6563 31.7135 17.6563V22.5034C31.7135 23.8364 31.5567 25.156 31.251 26.4342" fill="#F7E0BA"/>
<path d="M29.9239 28.2084C27.9226 32.1693 24.3217 35.2227 19.9947 36.3044C16.0714 35.3236 12.8045 32.1742 11.227 28.4561C9.88917 25.303 10.0085 22.2869 10.0085 18.9456C10.0085 15.7662 10.4214 12.6182 12.2557 9.90765C14.2156 7.0114 17.43 5.58914 20.861 5.41304C16.5553 5.19218 12.3549 6.70203 10.1181 10.5534C8.92566 12.6066 8.31121 15.0643 8.27597 17.4355C8.27597 20.2451 8.05535 23.1858 8.62957 25.9469C9.83488 31.743 14.1865 36.7043 19.9947 38.1563C24.3206 37.0747 28.4401 33.8109 30.0914 29.6026C30.5427 28.4523 31.0577 27.2545 31.3382 26.0495C31.7514 24.2749 31.7135 22.4592 31.7135 20.6515C31.7135 23.4191 30.8524 25.6715 29.9239 28.2084Z" fill="#F0B582"/>
<path d="M22.6305 0.686799C19.2034 0.552424 15.4909 0.401721 12.3752 2.03133C8.09504 4.27 5.96191 7.96875 5.96191 13.3087V18.2813H8.30559C8.16238 14.0311 9.86519 9.25867 13.6286 6.98172C16.9674 4.96164 21.7375 4.83281 25.2795 6.38992C28.1056 7.63235 30.0135 10.1223 30.9603 13.0093C31.5104 14.6867 31.814 16.5113 31.7562 18.2813H34.1101C34.1101 15.2884 34.4746 11.9883 33.5815 9.0932C32.1048 4.3061 27.6353 0.876642 22.6305 0.686799Z" fill="#A070CE"/>
<path d="M33.4929 16.6146C33.5754 14.0905 32.5947 11.323 31.2607 9.22641C28.5762 5.00672 23.7566 3.38227 18.9179 3.67148C18.1809 2.4457 19.6518 1.49648 20.6371 1.13945L19.3699 0.214844C18.2281 1.10391 17.4229 2.24531 17.7915 3.77609C12.2559 4.48164 9.19668 7.79672 7.71605 11.1427C7.93738 7.20906 9.41855 4.23695 12.1661 2.14469C8.0266 4.39391 5.96191 8.05711 5.96191 13.3087V16.6146V18.2812H8.30559C8.29324 17.915 8.29559 17.5447 8.31082 17.1726H8.3084C8.40824 14.5876 9.16269 11.9795 10.632 9.85125C12.5124 7.1275 15.5079 5.67188 18.7654 5.38594C18.7846 5.40281 24.4775 4.89586 27.7187 7.94648C30.5831 10.4567 31.8781 14.5528 31.7562 18.2813H34.1101C34.1101 16.6873 34.1101 16.6147 34.1101 16.6147L33.4929 16.6146Z" fill="#8040BE"/>
<path d="M20.6887 5.39102C17.3432 5.39102 14.2717 6.06813 11.7663 8.44923C9.14426 10.9411 8.30566 14.1526 8.30566 17.6563C8.89926 17.0627 9.48051 16.4536 10.0879 15.8741C11.4054 14.6168 12.8185 14.2561 14.5805 14.1295C17.3485 13.9305 19.9177 11.6697 20.0244 8.80212C25.057 8.82001 30.3469 12.8603 31.8084 17.6563C31.8084 14.6538 31.261 11.8822 29.3143 9.49258C27.2157 6.91633 24.012 5.39102 20.6887 5.39102Z" fill="#92A2B5"/>
<path d="M31.7166 15.6798C30.1371 11.0094 24.9574 7.12696 20.0243 7.10938C19.9472 9.18235 18.548 10.9786 16.7176 11.8595C14.729 12.8165 12.4639 12.3149 10.6183 13.727C11.8914 8.58305 16.3337 5.6761 21.4487 5.41868C17.9268 5.17251 14.2123 6.04758 11.6408 8.57235C9.18832 10.9803 8.30566 14.3007 8.30566 17.6563C8.95879 17.0032 10.2789 15.6994 10.2789 15.6994C12.7068 13.4376 14.4629 14.5717 16.5838 13.6165C18.4793 12.7627 19.9454 10.9227 20.0244 8.80219C25.057 8.82001 30.3469 12.8603 31.8084 17.6563C31.8084 16.9853 31.7807 16.326 31.7166 15.6798Z" fill="#61748B"/>
<path d="M12.3558 10.6641H13.5277V11.836H12.3558V10.6641Z" fill="white"/>
<path d="M14.6996 10.6641H15.8715V11.836H14.6996V10.6641Z" fill="white"/>
<path d="M19.309 2.46844H20.4808V3.64032H19.309V2.46844Z" fill="white"/>
<path d="M30.7479 30.2595L33.273 31.6405L30.7479 33.0216L29.3668 35.5468L27.9857 33.0216L25.4605 31.6405L27.9857 30.2595L29.3668 27.7343L30.7479 30.2595Z" fill="#FCF5BE"/>
<path d="M29.2533 31.7541L27.2532 30.6602L25.4605 31.6405L27.9857 33.0216L29.3668 35.5468L30.3472 33.7541L29.2533 31.7541Z" fill="#F8E868"/>
<path d="M9.6563 3.77398L12.1815 5.15508L9.6563 6.53617L8.27521 9.06133L6.89411 6.53617L4.36896 5.15508L6.89411 3.77398L8.27521 1.24883L9.6563 3.77398Z" fill="#FCF5BE"/>
<path d="M8.16177 5.26859L6.16161 4.17461L4.36896 5.15508L6.89411 6.53617L8.27521 9.06133L9.25568 7.26867L8.16177 5.26859Z" fill="#F8E868"/>
<path d="M38.7999 23.5156H39.9718V24.6875H38.7999V23.5156Z" fill="#A4D7F5"/>
<path d="M38.7999 30.5444H39.9718V31.7162H38.7999V30.5444Z" fill="#A4D7F5"/>
<path d="M33.0532 9.58687L34.184 9.27663C34.0756 8.88124 33.9462 8.48687 33.7993 8.10445L32.7046 8.52499C32.8376 8.8714 32.9549 9.22859 33.0532 9.58687Z" fill="black"/>
<path d="M17.9617 21.2884L16.8704 20.8592C16.1318 22.7977 13.3325 22.8352 12.5311 20.9273L11.4538 21.3909C12.6567 24.2533 16.8547 24.1945 17.9617 21.2884Z" fill="black"/>
<path d="M25.1765 22.3467C24.238 22.3467 23.3918 21.7896 23.0209 20.9273L21.9436 21.3909C23.1253 24.2073 27.2281 24.2064 28.4092 21.3911L27.3321 20.9275C26.9611 21.7896 26.1149 22.3467 25.1765 22.3467Z" fill="black"/>
<path d="M28.9416 18.7589L29.7452 17.9049C28.7806 16.9972 27.5198 16.4973 26.1953 16.4973H21.7653V17.6699H26.1953C27.22 17.6699 28.1954 18.0566 28.9416 18.7589Z" fill="black"/>
<path d="M18.2123 17.6699V16.4973H13.7305C12.4059 16.4973 11.1452 16.9972 10.1805 17.9049L10.9841 18.7589C11.7305 18.0566 12.7058 17.6699 13.7304 17.6699H18.2123Z" fill="black"/>
<path d="M16.7825 28.8876L16.1091 29.8477C18.2037 31.5524 21.7241 31.5524 23.8187 29.8477L23.1453 28.8876C21.4858 30.1794 18.3174 30.1839 16.7825 28.8876Z" fill="black"/>
<path d="M30.8762 29.3041C31.4539 27.9159 31.8456 26.4273 32.0627 24.7594C33.6482 23.7746 34.6244 22.0179 34.6244 20.1473V12.6542C34.603 11.765 34.5548 10.9823 34.4553 10.5073L33.2988 10.7016C33.5551 11.8045 33.4203 16.3937 33.4519 17.6798H32.2297C32.2122 9.72961 26.9726 4.11586 18.7122 4.82977C17.3061 4.03945 17.2913 2.03641 18.6905 1.23609H22.0942C26.414 1.23609 30.3051 3.63477 32.2492 7.49609L33.2967 6.96875C31.2376 2.79609 26.758 0.0203906 22.0942 0.0635156C17.5426 -0.003125 13.5551 -0.215078 9.84561 2.93875L8.23834 0L6.42428 3.31687L3.10748 5.13094L6.53959 7.07766C5.75334 8.39109 5.41209 10.3608 5.29873 12.4548V20.1474C5.29881 22.018 6.27967 23.7748 7.86514 24.7595C8.27467 28.9555 10.6569 33.3119 14.0897 35.9132V40H15.2623V36.7454C16.7149 37.683 18.2893 38.3575 19.9573 38.7595C21.6172 38.3599 23.2098 37.6702 24.6687 36.7293V40H25.8413V35.8962C26.5581 35.3377 27.2319 34.7156 27.8522 34.037L29.3446 36.7657L31.1587 33.4488L34.4755 31.6348L31.1587 29.8207L30.8762 29.3041ZM33.4562 18.8525C33.504 20.5349 33.5155 21.8814 32.2628 23.1491V18.8525H33.4562ZM5.55131 5.13086L7.28834 4.18086L8.23834 2.44383L9.18834 4.18086L10.9254 5.13086L9.18834 6.08086L8.23834 7.81789L7.28834 6.08086L5.55131 5.13086ZM6.47147 12.5982C6.47147 11.1578 6.73381 9.76922 7.25045 8.45547L8.23842 10.2619L10.0525 6.945L13.3693 5.13094L10.7623 3.70516C12.5493 2.28273 14.7176 1.43523 16.9944 1.2675C16.2187 2.37398 16.305 4.01313 17.1964 5.02891C10.9451 6.06039 7.67483 11.6115 7.63733 17.6798H6.47147V12.5982ZM6.47147 20.1473V18.8525H7.63295V23.1533C6.84834 22.3642 6.47147 21.2825 6.47147 20.1473ZM19.9573 37.5499C10.3902 34.9594 8.26092 26.5291 8.80717 17.8933L10.4679 16.2326C13.135 13.6059 15.345 15.7853 18.3582 13.1269L17.5857 12.2445C14.4552 14.8511 12.7047 11.9533 8.906 16.1359C9.18412 13.6677 10.0086 11.4546 11.2705 9.78813C15.0365 4.41531 25.9868 4.74156 29.1805 10.572C29.8929 11.7233 30.3408 12.9166 30.6229 14.1464C28.2708 10.8723 24.6218 8.69969 20.5437 8.24078V7.08656H19.371C19.4212 8.70695 19.3544 10.124 18.3171 11.4587L19.2526 12.1658C19.8733 11.3445 20.278 10.4068 20.4495 9.41008C25.098 9.94445 29.1387 12.913 31.0335 17.2154C31.0017 20.488 31.3221 24.8904 30.1356 27.9502L29.3446 26.5038L27.5305 29.8207L24.2137 31.6348L27.044 33.1827C25.1194 35.313 22.6313 36.8501 19.9573 37.5499ZM30.2946 32.5848L29.3446 34.3219L28.3946 32.5848L26.6576 31.6348L28.3946 30.6848L29.3446 28.9478L30.2946 30.6848L32.0316 31.6348L30.2946 32.5848Z" fill="black"/>
<path d="M36.3815 25.8495H35.2088V27.0223H34.0361V28.1949H35.2088V29.3677H36.3815V28.1949H37.5542V27.0223H36.3815V25.8495Z" fill="black"/>
<path d="M2.37351 8.31476H1.20085V9.48741H0.0281982V10.6601H1.20085V11.8328H2.37351V10.6601H3.54625V9.48741H2.37351V8.31476Z" fill="black"/>
</g>
<defs>
<clipPath id="clip0_1143_2912">
<rect width="40" height="40" fill="white"/>
</clipPath>
</defs>
</svg>
