<svg width="33" height="26" viewBox="0 0 33 26" fill="none" xmlns="http://www.w3.org/2000/svg">
<path d="M29.3906 4.0625H3.60938C1.61919 4.0625 0 5.33823 0 6.90625V19.0938C0 20.6618 1.61919 21.9375 3.60938 21.9375H29.3906C31.3808 21.9375 33 20.6618 33 19.0938V6.90625C33 5.33823 31.3808 4.0625 29.3906 4.0625ZM3.60938 5.6875H29.3906C30.2435 5.6875 30.9375 6.23426 30.9375 6.90625V8.53125H2.0625V6.90625C2.0625 6.23426 2.75647 5.6875 3.60938 5.6875ZM29.3906 20.3125H3.60938C2.75647 20.3125 2.0625 19.7657 2.0625 19.0938V10.1562H30.9375V19.0938C30.9375 19.7657 30.2435 20.3125 29.3906 20.3125Z" fill="#605DFF"/>
<path d="M7.21875 17.875H6.1875C5.61799 17.875 5.15625 17.5112 5.15625 17.0625V16.25C5.15625 15.8013 5.61799 15.4375 6.1875 15.4375H7.21875C7.78826 15.4375 8.25 15.8013 8.25 16.25V17.0625C8.25 17.5112 7.78826 17.875 7.21875 17.875Z" fill="#605DFF"/>
</svg>
