<svg width="27" height="26" viewBox="0 0 27 26" fill="none" xmlns="http://www.w3.org/2000/svg">
<path d="M13.5 0.8125C6.77865 0.8125 1.3125 6.27865 1.3125 13C1.3125 19.7213 6.77865 25.1875 13.5 25.1875C20.2213 25.1875 25.6875 19.7213 25.6875 13C25.6875 6.27865 20.2213 0.8125 13.5 0.8125ZM13.5 2.4375C19.3431 2.4375 24.0688 7.15687 24.0688 13C24.0688 18.8431 19.3431 23.5688 13.5 23.5688C7.65687 23.5688 2.9375 18.8431 2.9375 13C2.9375 7.15687 7.65687 2.4375 13.5 2.4375ZM13.4889 6.50476C13.2742 6.50854 13.0698 6.59711 12.9202 6.75114C12.7707 6.90516 12.6881 7.11211 12.6907 7.32678V8.01074C11.3788 8.25685 10.2563 9.10163 10.2563 10.5657C10.2563 11.5813 10.7142 12.4027 11.3291 12.881C11.944 13.3592 12.6383 13.5713 13.2477 13.7744C13.8571 13.9775 14.3831 14.1717 14.6822 14.4044C14.9814 14.6371 15.125 14.8329 15.125 15.4423C15.125 16.7964 11.8813 16.7964 11.8813 15.4423C11.8837 15.334 11.8645 15.2264 11.8248 15.1258C11.785 15.0251 11.7255 14.9334 11.6498 14.856C11.5742 14.7786 11.4838 14.7171 11.384 14.6751C11.2842 14.6332 11.1771 14.6115 11.0688 14.6115C10.9606 14.6115 10.8535 14.6332 10.7537 14.6751C10.6539 14.7171 10.5635 14.7786 10.4878 14.856C10.4122 14.9334 10.3527 15.0251 10.3129 15.1258C10.2732 15.2264 10.2539 15.334 10.2563 15.4423C10.2563 16.9052 11.3798 17.7515 12.6907 17.9988V18.6796C12.6883 18.7878 12.7075 18.8954 12.7473 18.9961C12.787 19.0967 12.8465 19.1885 12.9222 19.2658C12.9979 19.3432 13.0882 19.4047 13.188 19.4467C13.2878 19.4887 13.3949 19.5103 13.5032 19.5103C13.6114 19.5103 13.7186 19.4887 13.8183 19.4467C13.9181 19.4047 14.0085 19.3432 14.0842 19.2658C14.1599 19.1885 14.2193 19.0967 14.2591 18.9961C14.2988 18.8954 14.3181 18.7878 14.3157 18.6796V17.9988C15.6268 17.7517 16.7516 16.9054 16.7516 15.4423C16.7516 14.4266 16.2921 13.6052 15.6772 13.127C15.0623 12.6487 14.368 12.4351 13.7587 12.2319C13.1493 12.0288 12.6233 11.8362 12.3241 11.6035C12.0249 11.3708 11.8813 11.175 11.8813 10.5657C11.8813 9.21151 15.125 9.21151 15.125 10.5657C15.125 10.7814 15.2107 10.9882 15.3632 11.1408C15.5157 11.2933 15.7226 11.379 15.9383 11.379C16.154 11.379 16.3609 11.2933 16.5134 11.1408C16.6659 10.9882 16.7516 10.7814 16.7516 10.5657C16.7516 9.10383 15.6264 8.25989 14.3157 8.01233V7.32678C14.317 7.21807 14.2964 7.11022 14.2552 7.00959C14.2141 6.90897 14.1532 6.81763 14.0761 6.74098C13.999 6.66433 13.9073 6.60393 13.8064 6.56335C13.7056 6.52278 13.5976 6.50285 13.4889 6.50476Z" fill="#605DFF"/>
</svg>
