<svg width="40" height="40" viewBox="0 0 40 40" fill="none" xmlns="http://www.w3.org/2000/svg">
<g clip-path="url(#clip0_1143_2888)">
<path d="M37.4333 11.4067L32.0933 18.3467L31.18 17.2267C31.0013 17.011 30.7069 16.93 30.4431 17.0239C30.1792 17.1178 30.0022 17.3666 30 17.6467V25.3333H21C19.7139 25.3395 18.6729 26.3806 18.6667 27.6667C18.6667 28.9553 19.7113 30 21 30C19.7139 30.0062 18.6729 31.0473 18.6667 32.3333C18.6667 33.622 19.7113 34.6667 21 34.6667C20.3812 34.6654 19.7879 34.9129 19.3533 35.3533C19.1641 35.5395 19.0105 35.7587 18.9 36H9.99998V31.8667C10.0067 31.9533 10.0067 32 10.0067 32C10.0067 32 10.0067 26.6667 14.6667 26.6667C10.0067 26.6667 10.0067 21.3333 10.0067 21.3333C10.0067 21.3333 10.0067 21.38 9.99998 21.4667V17.6467C9.99774 17.3666 9.82072 17.1178 9.55689 17.0239C9.29306 16.93 8.99866 17.011 8.81998 17.2267L7.90665 18.3467L2.56665 11.4067L6.95332 5.42667C7.64355 4.48918 8.54594 3.72843 9.58665 3.20667L11.5333 2.23334C12.38 5.52667 15.8533 8 20 8C24.1467 8 27.62 5.52667 28.4667 2.23334L30.4133 3.20667C31.454 3.72843 32.3564 4.48918 33.0467 5.42667L37.4333 11.4067Z" fill="#EF314C"/>
<path d="M29.18 17.2267C29.0013 17.011 28.7069 16.93 28.4431 17.0239C28.1793 17.1178 28.0022 17.3666 28 17.6467V25.3333H30V18.232L29.18 17.2267Z" fill="#BB193B"/>
<path d="M21 25.3333H19C17.7139 25.3395 16.6728 26.3806 16.6666 27.6667C16.6666 28.9553 17.7113 30 19 30C17.7139 30.0062 16.6728 31.0472 16.6666 32.3333C16.6666 33.622 17.7113 34.6667 19 34.6667C18.3812 34.6654 17.7879 34.9128 17.3533 35.3533C17.1641 35.5395 17.0105 35.7586 16.9 36H18.9C19.0105 35.7586 19.1641 35.5395 19.3533 35.3533C19.7879 34.9128 20.3812 34.6654 21 34.6667C20.3811 34.6667 19.7876 34.4208 19.35 33.9832C18.9125 33.5457 18.6666 32.9522 18.6666 32.3333C18.6728 31.0472 19.7139 30.0062 21 30C20.3811 30 19.7876 29.7542 19.35 29.3166C18.9125 28.879 18.6666 28.2855 18.6666 27.6667C18.6728 26.3806 19.7139 25.3395 21 25.3333Z" fill="#BB193B"/>
<path d="M38.6933 14.8L35.0267 19.38C34.7747 19.6933 34.3952 19.8766 33.9932 19.8792C33.5911 19.8817 33.2093 19.7033 32.9533 19.3933L32.0933 18.3467L37.4333 11.4067L38.7267 13.1733C39.086 13.6603 39.0723 14.3282 38.6933 14.8Z" fill="#CFD8DC"/>
<path d="M28.4667 2.23333C27.62 5.52667 24.1467 8 20 8C15.8533 8 12.38 5.52667 11.5333 2.23333L13.82 1.08667C13.8867 1.05333 13.9533 1.02667 14.02 1C14.2333 3.42667 16.8333 5.33333 20 5.33333C23.1667 5.33333 25.7667 3.42667 25.98 1C26.0467 1.02667 26.1133 1.05333 26.18 1.08667L28.4667 2.23333Z" fill="#F5F5F5"/>
<path d="M25.98 0.999994C25.7666 3.42666 23.1666 5.33333 20 5.33333C16.8333 5.33333 14.2333 3.42666 14.02 0.999994C14.5221 0.779352 15.0648 0.665825 15.6133 0.666661H24.3866C24.9351 0.665825 25.4778 0.779352 25.98 0.999994Z" fill="#BB193B"/>
<path d="M7.90664 18.3467L7.04664 19.3933C6.79067 19.7033 6.40882 19.8817 6.0068 19.8792C5.60479 19.8766 5.22526 19.6933 4.9733 19.38L1.30664 14.8C0.927651 14.3282 0.913964 13.6603 1.2733 13.1733L2.56664 11.4067L7.90664 18.3467Z" fill="#F5F5F5"/>
<path d="M21 39.3333H11.3333C10.5979 39.3311 10.0022 38.7355 10 38V36H18.9C18.7439 36.3101 18.664 36.6529 18.6667 37C18.6667 37.6188 18.9125 38.2123 19.3501 38.6499C19.7877 39.0875 20.3812 39.3333 21 39.3333Z" fill="#F5F5F5"/>
<path d="M18.6666 37C18.6639 36.6529 18.7439 36.3101 18.9 36H16.9C16.7439 36.3101 16.6639 36.6529 16.6666 37C16.6666 37.6188 16.9125 38.2123 17.35 38.6499C17.7876 39.0875 18.3811 39.3333 19 39.3333H21C20.3811 39.3333 19.7876 39.0875 19.35 38.6499C18.9125 38.2123 18.6666 37.6188 18.6666 37Z" fill="#CFD8DC"/>
<path d="M39.3333 37C39.3271 38.2861 38.286 39.3271 37 39.3333H21C20.3811 39.3333 19.7876 39.0875 19.35 38.6499C18.9125 38.2123 18.6666 37.6188 18.6666 37C18.6746 36.3831 18.9206 35.7931 19.3533 35.3533C19.7879 34.9128 20.3812 34.6654 21 34.6667H37C37.6188 34.6667 38.2123 34.9125 38.6499 35.3501C39.0875 35.7877 39.3333 36.3812 39.3333 37Z" fill="#9D27B0"/>
<path d="M37 34.6667H35C36.2887 34.6667 37.3333 35.7113 37.3333 37C37.3271 38.2861 36.2861 39.3271 35 39.3333H37C38.2861 39.3271 39.3271 38.2861 39.3333 37C39.3333 36.3812 39.0875 35.7877 38.6499 35.3501C38.2123 34.9125 37.6188 34.6667 37 34.6667Z" fill="#6A1B9A"/>
<path d="M39.3333 32.3333C39.3271 33.6194 38.286 34.6605 37 34.6667H21C20.3811 34.6667 19.7876 34.4208 19.35 33.9832C18.9125 33.5457 18.6666 32.9522 18.6666 32.3333C18.6728 31.0472 19.7139 30.0062 21 30H37C38.2886 30 39.3333 31.0447 39.3333 32.3333Z" fill="#60A917"/>
<path d="M37 30H35C36.2887 30 37.3333 31.0447 37.3333 32.3333C37.3271 33.6194 36.2861 34.6605 35 34.6667H37C38.2861 34.6605 39.3271 33.6194 39.3333 32.3333C39.3333 31.7145 39.0875 31.121 38.6499 30.6834C38.2123 30.2458 37.6188 30 37 30Z" fill="#549414"/>
<path d="M39.3333 27.6667C39.3271 28.9527 38.286 29.9938 37 30H21C20.3811 30 19.7876 29.7542 19.35 29.3166C18.9125 28.879 18.6666 28.2855 18.6666 27.6667C18.6728 26.3806 19.7139 25.3395 21 25.3333H37C38.2886 25.3333 39.3333 26.378 39.3333 27.6667Z" fill="#02A9F4"/>
<path d="M37 25.3333H35C36.2887 25.3333 37.3333 26.378 37.3333 27.6667C37.3271 28.9527 36.2861 29.9938 35 30H37C38.2861 29.9938 39.3271 28.9527 39.3333 27.6667C39.3333 27.0478 39.0875 26.4543 38.6499 26.0167C38.2123 25.5792 37.6188 25.3333 37 25.3333Z" fill="#0377BC"/>
<path d="M21.9873 17.3333C17.3273 17.3333 17.3273 12 17.3273 12C17.3273 12 17.3273 17.3333 12.6666 17.3333C17.3273 17.3333 17.3273 22.6667 17.3273 22.6667C17.3273 22.6667 17.3273 17.3333 21.9873 17.3333Z" fill="#FFDC00"/>
<path d="M14.6666 26.6667C10.0066 26.6667 10.0066 32 10.0066 32C10.0066 32 10.0066 31.9533 9.99995 31.8667C9.96662 31.0467 9.56662 26.6667 5.34662 26.6667C9.56662 26.6667 9.96662 22.2867 9.99995 21.4667C10.0066 21.38 10.0066 21.3333 10.0066 21.3333C10.0066 21.3333 10.0066 26.6667 14.6666 26.6667Z" fill="#FFDC00"/>
<path d="M40 27.6667C39.9981 26.0106 38.6561 24.6685 37 24.6667H30.6667V17.6487L32.442 19.818C32.8226 20.2799 33.3901 20.547 33.9887 20.546H34.0066C34.6063 20.5428 35.1724 20.2686 35.5466 19.8L39.2133 15.2213C39.7819 14.514 39.8029 13.5126 39.2647 12.782L33.584 5.03133C32.8307 4.00948 31.8466 3.18006 30.712 2.61067L26.472 0.487333C26.414 0.458667 26.3533 0.438 26.294 0.412H26.2873C25.6894 0.143656 25.042 0.00331866 24.3867 0H15.6133C14.9596 0.00290919 14.3137 0.141856 13.7167 0.408L13.7046 0.413333C13.6433 0.44 13.582 0.461333 13.5213 0.490667L9.28865 2.61067C8.15344 3.18009 7.16908 4.01003 6.41598 5.03267L0.737314 12.7767C0.197921 13.5068 0.217903 14.5086 0.785981 15.2167L4.45265 19.7953C4.82706 20.2664 5.39492 20.5422 5.99665 20.5453H6.01465C6.61475 20.5456 7.18325 20.2764 7.56332 19.812L9.33331 17.6467V21.4667V21.476C9.30332 22.254 8.96265 26 5.34598 26C4.97779 26 4.67931 26.2985 4.67931 26.6667C4.67931 27.0349 4.97779 27.3333 5.34598 27.3333C8.94598 27.3333 9.30065 31.0867 9.33465 31.8593V31.8667V38C9.33465 39.1046 10.2301 40 11.3346 40H37C38.275 40.0057 39.4131 39.2014 39.8335 37.9977C40.2539 36.7939 39.864 35.456 38.8627 34.6667C39.5806 34.1053 40.0001 33.2447 40.0001 32.3333C40.0001 31.422 39.5806 30.5614 38.8627 30C39.5779 29.4365 39.9967 28.5772 40 27.6667ZM38.1733 14.3833L34.5066 18.964C34.3813 19.1198 34.1926 19.2111 33.9926 19.2127C33.7921 19.209 33.6023 19.1215 33.4693 18.9713L32.9466 18.332L37.4207 12.518L38.1913 13.5693C38.3709 13.8132 38.3636 14.1476 38.1733 14.3833ZM20 6C23.0886 6 25.7293 4.29067 26.458 1.97133L27.6626 2.57467C26.662 5.36067 23.5333 7.33333 20 7.33333C16.4667 7.33333 13.338 5.36067 12.3373 2.57467L13.5426 1.97133C14.2706 4.29067 16.9113 6 20 6ZM24.3867 1.33333C24.6691 1.33441 24.9502 1.37137 25.2233 1.44333C24.742 3.286 22.568 4.66667 20 4.66667C17.432 4.66667 15.258 3.286 14.7766 1.44333C15.0498 1.37148 15.3309 1.33452 15.6133 1.33333H24.3867ZM6.00798 19.2127C5.80774 19.2117 5.61873 19.12 5.49398 18.9633L1.82731 14.3827C1.6372 14.1461 1.63089 13.8109 1.81198 13.5673L2.58131 12.518L7.05465 18.3313L6.53332 18.9687C6.39849 19.1178 6.20892 19.2059 6.00798 19.2127ZM8.30398 16.8047L7.92132 17.2713L3.39998 11.4L7.48932 5.82333C8.11697 4.96912 8.93806 4.27574 9.88532 3.8L11.1406 3.17133C12.386 6.4 15.97 8.66667 20 8.66667C24.03 8.66667 27.614 6.4 28.8593 3.174L30.1153 3.80333C31.0611 4.27778 31.8814 4.96901 32.5093 5.82067L36.6 11.4L32.08 17.274L31.7 16.8073C31.344 16.3707 30.7519 16.205 30.221 16.3933C29.69 16.5816 29.3347 17.0833 29.3333 17.6467V24.6667H21C19.7249 24.661 18.5869 25.4652 18.1664 26.669C17.746 27.8727 18.136 29.2106 19.1373 30C18.4194 30.5614 17.9999 31.422 17.9999 32.3333C17.9999 33.2447 18.4194 34.1053 19.1373 34.6667C18.8946 34.8553 18.6824 35.0802 18.508 35.3333H10.6666V32.0307C10.6666 32.02 10.6726 32.0107 10.6726 32C10.6726 31.8093 10.718 27.3333 14.6666 27.3333C15.0348 27.3333 15.3333 27.0349 15.3333 26.6667C15.3333 26.2985 15.0348 26 14.6666 26C10.7373 26 10.6733 21.5227 10.6726 21.3333C10.6726 21.3227 10.6673 21.3133 10.6666 21.3027V17.6467C10.6643 17.0849 10.3101 16.5848 9.78092 16.3962C9.25172 16.2076 8.66107 16.371 8.30398 16.8047ZM7.99198 26.6667C8.88522 26.1207 9.58848 25.3127 10.006 24.3527C10.4237 25.3127 11.1272 26.1207 12.0206 26.6667C11.1272 27.2126 10.4237 28.0206 10.006 28.9807C9.58848 28.0206 8.88522 27.2126 7.99198 26.6667ZM10.6666 38V36.6667H18.034C18.0162 36.777 18.0049 36.8883 18 37C17.9997 37.5937 18.1765 38.1741 18.508 38.6667H11.3333C10.9651 38.6667 10.6666 38.3682 10.6666 38ZM38.6667 37C38.6667 37.9205 37.9205 38.6667 37 38.6667H21C20.0795 38.6667 19.3333 37.9205 19.3333 37C19.3333 36.0795 20.0795 35.3333 21 35.3333H37C37.9205 35.3333 38.6667 36.0795 38.6667 37ZM38.6667 32.3333C38.6667 33.2538 37.9205 34 37 34H21C20.0795 34 19.3333 33.2538 19.3333 32.3333C19.3333 31.4129 20.0795 30.6667 21 30.6667H37C37.9205 30.6667 38.6667 31.4129 38.6667 32.3333ZM21 29.3333C20.0795 29.3333 19.3333 28.5871 19.3333 27.6667C19.3333 26.7462 20.0795 26 21 26H37C37.9205 26 38.6667 26.7462 38.6667 27.6667C38.6667 28.5871 37.9205 29.3333 37 29.3333H21Z" fill="black"/>
<path d="M12.6667 18C16.596 18 16.66 22.4773 16.6607 22.6667C16.6607 23.0349 16.9591 23.3333 17.3273 23.3333C17.6955 23.3333 17.994 23.0349 17.994 22.6667C17.994 22.476 18.0393 18 21.9873 18C22.3555 18 22.654 17.7015 22.654 17.3333C22.654 16.9651 22.3555 16.6667 21.9873 16.6667C18.058 16.6667 17.9947 12.1893 17.994 12C17.994 11.6318 17.6955 11.3333 17.3273 11.3333C16.9591 11.3333 16.6607 11.6318 16.6607 12C16.6607 12.1907 16.6153 16.6667 12.6667 16.6667C12.2985 16.6667 12 16.9651 12 17.3333C12 17.7015 12.2985 18 12.6667 18ZM17.3273 15.0193C17.7448 15.9794 18.4481 16.7874 19.3413 17.3333C18.4481 17.8793 17.7448 18.6873 17.3273 19.6473C16.9096 18.6873 16.2061 17.8793 15.3127 17.3333C16.2061 16.7874 16.9096 15.9794 17.3273 15.0193Z" fill="black"/>
</g>
<defs>
<clipPath id="clip0_1143_2888">
<rect width="40" height="40" fill="white"/>
</clipPath>
</defs>
</svg>
