<svg width="24" height="24" viewBox="0 0 24 24" fill="none" xmlns="http://www.w3.org/2000/svg">
<g clip-path="url(#clip0_1244_3484)">
<path d="M1.73003 20.52C2.02003 21.46 2.75003 22.2 3.70003 22.5C4.44003 22.74 5.15003 22.9 5.87003 22.99C6.95003 23.13 8.05003 23.13 9.13003 22.99C9.17003 22.99 9.22003 22.98 9.26003 22.96L11.22 22.43C11.73 22.29 12.27 22.29 12.79 22.44L14.74 22.96C14.78 22.98 14.83 22.99 14.87 22.99C15.41 23.06 15.96 23.1 16.5 23.1C17.05 23.1 17.59 23.06 18.13 22.99C18.85 22.9 19.56 22.74 20.3 22.5C21.25 22.2 21.98 21.46 22.27 20.52C22.6 19.43 22.84 18.29 22.99 17.13C23.19 15.58 23.22 14 23.08 12.43C23.02 11.8 22.77 11.22 22.35 10.72C22.04 10.36 21.27 9.43 20.94 8.48C20.6 7.52 20.49 6.51 20.64 5.45C20.82 4.08 20 2.75001 18.69 2.28L16.77 1.58C16.53 1.06 16.07 0.660005 15.52 0.500005C13.23 -0.159995 10.77 -0.159995 8.48003 0.500005C7.93003 0.660005 7.47003 1.05 7.23003 1.58L5.31003 2.28C4.00003 2.75001 3.18003 4.08 3.36003 5.46C3.51003 6.51 3.40003 7.52 3.06003 8.49C2.73003 9.43 1.96003 10.36 1.64003 10.73C1.23003 11.22 0.980028 11.8 0.920028 12.43C0.780028 14 0.810028 15.58 1.01003 17.13C1.16003 18.29 1.40003 19.43 1.73003 20.52ZM12 15.8204C12 15.2681 12.4477 14.8204 13 14.8204C13.5523 14.8204 14 15.2681 14 15.8204C14 16.3727 13.5523 16.8204 13 16.8204C12.4477 16.8204 12 16.3726 12 15.8204ZM12 11.8204C12 11.2681 12.4477 10.8204 13 10.8204C13.5523 10.8204 14 11.2681 14 11.8204C14 12.3727 13.5523 12.8204 13 12.8204C12.4477 12.8204 12 12.3726 12 11.8204ZM11.2129 10.3691C11.0713 10.7241 11 11.0976 11 11.4799V17.9999C11 18.5521 10.5527 18.9999 10 18.9999C9.44733 18.9999 9.00003 18.5521 9.00003 17.9999V11.4799C9.00003 10.8437 9.11913 10.2216 9.35353 9.63081C9.55863 9.11711 10.1396 8.8671 10.6523 9.0707C11.166 9.2748 11.4161 9.856 11.2129 10.3691ZM12 2C13 2 14 2.14001 14.96 2.41001C14.5 3.41001 13.92 4.34011 13.23 5.19C12.85 5.65 12.43 6.09 12 6.5C11.57 6.09 11.15 5.65 10.77 5.19C10.44 4.78 10.13 4.34 9.85003 3.90001C9.55003 3.42001 9.28013 2.92001 9.04003 2.42001C10 2.14001 11 2 12 2Z" fill="#25B003"/>
</g>
<defs>
<clipPath id="clip0_1244_3484">
<rect width="24" height="24" fill="white"/>
</clipPath>
</defs>
</svg>
