<svg width="26" height="26" viewBox="0 0 26 26" fill="none" xmlns="http://www.w3.org/2000/svg">
<g clip-path="url(#clip0_1040_529)">
<path d="M13 25.0997C19.731 25.0997 25.1875 19.6432 25.1875 12.9122C25.1875 6.18126 19.731 0.724731 13 0.724731C6.26903 0.724731 0.8125 6.18126 0.8125 12.9122C0.8125 19.6432 6.26903 25.0997 13 25.0997Z" fill="#EC407A"/>
<path d="M13 0C5.83213 0 0 5.83213 0 13C0 20.1679 5.83213 26 13 26C20.1679 26 26 20.1679 26 13C26 5.83213 20.1679 0 13 0ZM24.3701 13.0975C21.6174 12.3711 18.7948 12.2866 16.1054 12.8407C15.7381 11.9242 15.3416 11.0224 14.9159 10.1319C17.3485 8.99438 19.5975 7.45225 21.5702 5.54613C23.3106 7.54325 24.375 10.1465 24.375 13C24.375 13.0325 24.3701 13.0634 24.3701 13.0975ZM20.4214 4.39888C18.5786 6.17825 16.4824 7.62775 14.2106 8.68725C12.9967 6.3635 11.5765 4.14375 9.96938 2.0475C10.9363 1.77937 11.9486 1.625 13 1.625C15.8356 1.625 18.4275 2.67475 20.4214 4.39888ZM8.36387 2.62275C10.0132 4.72225 11.4611 6.95825 12.6945 9.29988C9.282 10.6031 5.577 11.1036 1.86713 10.6698C2.6195 7.06875 5.083 4.095 8.36387 2.62275ZM1.625 13C1.625 12.7563 1.64612 12.5174 1.66237 12.2785C2.62438 12.3923 3.58637 12.467 4.54513 12.467C7.60337 12.467 10.608 11.869 13.4241 10.7721C13.8141 11.5846 14.1814 12.4085 14.521 13.2437C10.5267 14.443 6.968 17.0008 4.57275 20.6131C2.74787 18.5949 1.625 15.9283 1.625 13ZM5.76062 21.7669C7.96413 18.3024 11.3246 15.86 15.106 14.755C16.133 17.5825 16.8724 20.5189 17.303 23.5235C15.9754 24.0695 14.5226 24.375 13 24.375C10.2521 24.375 7.7285 23.3951 5.76062 21.7669ZM18.8273 22.75C18.3804 19.8867 17.6719 17.0836 16.7017 14.378C19.1571 13.9165 21.7262 14.0254 24.2288 14.7323C23.7039 18.1383 21.671 21.0438 18.8273 22.75Z" fill="#C2185B"/>
</g>
<defs>
<clipPath id="clip0_1040_529">
<rect width="26" height="26" fill="white"/>
</clipPath>
</defs>
</svg>
