<svg width="26" height="26" viewBox="0 0 26 26" fill="none" xmlns="http://www.w3.org/2000/svg">
<g clip-path="url(#clip0_1166_3323)">
<path d="M19.8488 2.07512C18.6658 0.69875 16.6004 0 13.7144 0H6.47994C5.56344 0 4.79644 0.664625 4.65344 1.58113L1.64069 21.0811C1.57731 21.502 1.69919 21.9278 1.97544 22.2495C2.24681 22.568 2.64331 22.75 3.05931 22.75H8.22194L9.41631 15.0118C9.44069 14.9029 9.53006 14.8249 9.63081 14.8249H11.7531C16.9108 14.8249 20.0032 12.3386 20.9376 7.43763L21.0204 6.968C21.3292 4.85063 20.9798 3.38812 19.8488 2.07512ZM19.4149 6.7145L19.3418 7.12888C18.5634 11.2125 16.0821 13.1982 11.7547 13.1982H9.63244C8.79556 13.1982 8.08219 13.7556 7.85794 14.5519L7.84494 14.5486L7.81081 14.7712C7.80919 14.7729 7.80919 14.7745 7.80919 14.7778L6.82931 21.125H3.27869L6.25894 1.82975C6.27681 1.71113 6.36944 1.625 6.47994 1.625H13.7128C16.1048 1.625 17.7558 2.132 18.6187 3.13462C19.4312 4.07875 19.6522 5.08787 19.4149 6.7145Z" fill="#605DFF"/>
<path d="M11.0892 17.808L11.0566 18.0348L12.665 18.2664L12.6977 18.0396L11.0892 17.808Z" fill="#605DFF"/>
<path d="M23.1004 5.31537C22.4602 4.58087 21.5567 4.03324 20.4143 3.69037L19.9479 5.24712C20.7913 5.50062 21.4397 5.88249 21.8719 6.37974C22.6763 7.31574 22.9038 8.35574 22.6633 9.95637C22.6633 9.95637 22.6194 10.218 22.5837 10.3789C21.8134 14.4609 19.3337 16.445 14.9982 16.445H12.8857C11.9757 16.445 11.2071 17.108 11.0592 18.0277L10.0777 24.375H6.52219L6.87969 22.061L5.27419 21.814L4.88094 24.3555C4.82894 24.778 4.95894 25.2005 5.23682 25.5157C5.50982 25.8245 5.89819 26 6.30444 26H11.4703L12.6631 18.2812C12.6809 18.1756 12.7622 18.07 12.8857 18.07H14.9982C20.1673 18.07 23.2564 15.5837 24.1729 10.7104C24.2103 10.5495 24.2656 10.2261 24.2672 10.2115C24.5808 8.12987 24.2217 6.62187 23.1004 5.31537Z" fill="#605DFF"/>
</g>
<defs>
<clipPath id="clip0_1166_3323">
<rect width="26" height="26" fill="white"/>
</clipPath>
</defs>
</svg>
