<svg width="40" height="40" viewBox="0 0 40 40" fill="none" xmlns="http://www.w3.org/2000/svg">
<g clip-path="url(#clip0_1143_2761)">
<path d="M4.57267 4.57344H35.4266V35.4273H4.57267V4.57344Z" fill="#57A4FF"/>
<path d="M12.6891 14.2508H24.1867V25.7484H12.6891V14.2508Z" fill="#78B9EB"/>
<path d="M5.58594 11.068H8.20312V13.6852H5.58594V11.068Z" fill="#78B9EB"/>
<path d="M5.58594 15.4688H8.20312V18.0859H5.58594V15.4688Z" fill="#78B9EB"/>
<path d="M14.2516 14.2508H25.7492V25.7484H14.2516V14.2508Z" fill="#FFB655"/>
<path d="M0.585985 6.62735H4.57349V8.76274H0.585985V6.62735Z" fill="#FFE477"/>
<path d="M0.585985 11.5492H4.57349V13.6846H0.585985V11.5492Z" fill="#FFE477"/>
<path d="M0.585985 16.4711H4.57349V18.6065H0.585985V16.4711Z" fill="#FFE477"/>
<path d="M0.585985 21.393H4.57349V23.5284H0.585985V21.393Z" fill="#FFE477"/>
<path d="M0.585985 26.3148H4.57349V28.4502H0.585985V26.3148Z" fill="#FFE477"/>
<path d="M0.585985 31.2367H4.57349V33.3721H0.585985V31.2367Z" fill="#FFE477"/>
<path d="M35.4266 6.62735H39.4141V8.76274H35.4266V6.62735Z" fill="#FFE477"/>
<path d="M35.4266 11.5492H39.4141V13.6846H35.4266V11.5492Z" fill="#FFE477"/>
<path d="M35.4266 16.4711H39.4141V18.6065H35.4266V16.4711Z" fill="#FFE477"/>
<path d="M35.4266 21.393H39.4141V23.5284H35.4266V21.393Z" fill="#FFE477"/>
<path d="M35.4266 26.3148H39.4141V28.4502H35.4266V26.3148Z" fill="#FFE477"/>
<path d="M35.4266 31.2367H39.4141V33.3721H35.4266V31.2367Z" fill="#FFE477"/>
<path d="M6.62791 35.4266H8.76331V39.4141H6.62791V35.4266Z" fill="#FFD422"/>
<path d="M11.5498 35.4266H13.6852V39.4141H11.5498V35.4266Z" fill="#FFD422"/>
<path d="M16.4717 35.4266H18.6071V39.4141H16.4717V35.4266Z" fill="#FFD422"/>
<path d="M21.3935 35.4266H23.5289V39.4141H21.3935V35.4266Z" fill="#FFD422"/>
<path d="M26.3154 35.4266H28.4508V39.4141H26.3154V35.4266Z" fill="#FFD422"/>
<path d="M31.2373 35.4266H33.3727V39.4141H31.2373V35.4266Z" fill="#FFD422"/>
<path d="M6.62791 0.585938H8.76331V4.57344H6.62791V0.585938Z" fill="#FFD422"/>
<path d="M11.5498 0.585938H13.6852V4.57344H11.5498V0.585938Z" fill="#FFD422"/>
<path d="M16.4717 0.585938H18.6071V4.57344H16.4717V0.585938Z" fill="#FFD422"/>
<path d="M21.3935 0.585938H23.5289V4.57344H21.3935V0.585938Z" fill="#FFD422"/>
<path d="M26.3154 0.585938H28.4508V4.57344H26.3154V0.585938Z" fill="#FFD422"/>
<path d="M31.2373 0.585938H33.3727V4.57344H31.2373V0.585938Z" fill="#FFD422"/>
<path d="M7.14844 11.068H9.76562V13.6852H7.14844V11.068Z" fill="#FF3F62"/>
<path d="M7.14844 15.4688H9.76562V18.0859H7.14844V15.4688Z" fill="#FF3F62"/>
<path d="M0.585985 6.62735H4.57349V8.76274H0.585985V6.62735Z" fill="#FFE477"/>
<path d="M0.585985 11.5492H4.57349V13.6846H0.585985V11.5492Z" fill="#FFE477"/>
<path d="M0.585985 16.4711H4.57349V18.6065H0.585985V16.4711Z" fill="#FFE477"/>
<path d="M0.585985 21.393H4.57349V23.5284H0.585985V21.393Z" fill="#FFE477"/>
<path d="M0.585985 26.3148H4.57349V28.4502H0.585985V26.3148Z" fill="#FFE477"/>
<path d="M0.585985 31.2367H4.57349V33.3721H0.585985V31.2367Z" fill="#FFE477"/>
<path d="M6.62791 35.4266H8.76331V39.4141H6.62791V35.4266Z" fill="#FFD422"/>
<path d="M11.5498 35.4266H13.6852V39.4141H11.5498V35.4266Z" fill="#FFD422"/>
<path d="M16.4717 35.4266H18.6071V39.4141H16.4717V35.4266Z" fill="#FFD422"/>
<path d="M21.3935 35.4266H23.5289V39.4141H21.3935V35.4266Z" fill="#FFD422"/>
<path d="M26.3154 35.4266H28.4508V39.4141H26.3154V35.4266Z" fill="#FFD422"/>
<path d="M31.2373 35.4266H33.3727V39.4141H31.2373V35.4266Z" fill="#FFD422"/>
<path d="M6.62791 0.585938H8.76331V4.57344H6.62791V0.585938Z" fill="#FFD422"/>
<path d="M11.5498 0.585938H13.6852V4.57344H11.5498V0.585938Z" fill="#FFD422"/>
<path d="M16.4717 0.585938H18.6071V4.57344H16.4717V0.585938Z" fill="#FFD422"/>
<path d="M21.3935 0.585938H23.5289V4.57344H21.3935V0.585938Z" fill="#FFD422"/>
<path d="M26.3154 0.585938H28.4508V4.57344H26.3154V0.585938Z" fill="#FFD422"/>
<path d="M31.2373 0.585938H33.3727V4.57344H31.2373V0.585938Z" fill="#FFD422"/>
<path d="M30.7391 4.57344H35.4266V35.4273H30.7391V4.57344Z" fill="#006DF0"/>
<path d="M24.1867 14.2508H25.7492V25.7484H24.1867V14.2508Z" fill="#FF9811"/>
<path d="M37.8516 16.4711H39.4141V18.6065H37.8516V16.4711Z" fill="#FFD422"/>
<path d="M37.8516 11.5492H39.4141V13.6846H37.8516V11.5492Z" fill="#FFD422"/>
<path d="M37.8516 6.62735H39.4141V8.76274H37.8516V6.62735Z" fill="#FFD422"/>
<path d="M37.8516 31.2367H39.4141V33.3721H37.8516V31.2367Z" fill="#FFD422"/>
<path d="M37.8516 21.393H39.4141V23.5284H37.8516V21.393Z" fill="#FFD422"/>
<path d="M37.8516 26.3148H39.4141V28.4502H37.8516V26.3148Z" fill="#FFD422"/>
<path d="M3.01251 16.4711H4.57501V18.6065H3.01251V16.4711Z" fill="#FFD422"/>
<path d="M3.01251 11.5492H4.57501V13.6846H3.01251V11.5492Z" fill="#FFD422"/>
<path d="M3.01251 6.62735H4.57501V8.76274H3.01251V6.62735Z" fill="#FFD422"/>
<path d="M3.01251 31.2367H4.57501V33.3721H3.01251V31.2367Z" fill="#FFD422"/>
<path d="M3.01251 21.393H4.57501V23.5284H3.01251V21.393Z" fill="#FFD422"/>
<path d="M3.01251 26.3148H4.57501V28.4502H3.01251V26.3148Z" fill="#FFD422"/>
<path d="M8.20312 11.068H9.76562V13.6852H8.20312V11.068Z" fill="#C70024"/>
<path d="M8.20312 15.4688H9.76562V18.0859H8.20312V15.4688Z" fill="#C70024"/>
<path d="M7.1156 31.7188H8.28748V32.8906H7.1156V31.7188Z" fill="#1D1D1F"/>
<path d="M9.06873 31.7188H10.2406V32.8906H9.06873V31.7188Z" fill="#1D1D1F"/>
<path d="M12.975 31.7188H14.1469V32.8906H12.975V31.7188Z" fill="#1D1D1F"/>
<path d="M11.0219 31.7188H12.1937V32.8906H11.0219V31.7188Z" fill="#1D1D1F"/>
<path d="M7.1156 29.7008H8.28748V30.8727H7.1156V29.7008Z" fill="#1D1D1F"/>
<path d="M9.06873 29.7008H10.2406V30.8727H9.06873V29.7008Z" fill="#1D1D1F"/>
<path d="M12.975 29.7008H14.1469V30.8727H12.975V29.7008Z" fill="#1D1D1F"/>
<path d="M11.0219 29.7008H12.1937V30.8727H11.0219V29.7008Z" fill="#1D1D1F"/>
<path d="M21.0156 15.625H22.1875V16.7969H21.0156V15.625Z" fill="#1D1D1F"/>
<path d="M19.0625 15.625H20.2344V16.7969H19.0625V15.625Z" fill="#1D1D1F"/>
<path d="M22.9688 15.625H24.1406V16.7969H22.9688V15.625Z" fill="#1D1D1F"/>
<path d="M0 9.34898V6.04164H3.9875V3.9875H6.04164V0H9.34898V3.9875H10.9635V0H14.2709V3.9875H15.8854V0H19.1927V3.9875H20.8073V0H24.1146V3.99133L25.7292 3.99078V0H29.0365V3.98977L30.6511 3.98922V0H33.9584V3.98813L36.0125 3.9875V6.04164H40V9.34898H36.0125V10.9635H40V14.2709H36.0125V15.8854H40V19.1927H36.0125V20.8073H40V24.1146H36.0125V25.7291H40V29.0365H36.0125V30.651H40V33.9584H36.0125V36.0086L33.9584 36.0088V40H30.6511V36.0092L29.0365 36.0094V40H25.7292V36.0098L24.1146 36.01V40H20.8073V36.0105L19.1927 36.0106V40H15.8854V36.011L14.2709 36.0112V40H10.9635V36.0116L9.34898 36.0118V40H6.04164V36.0123L3.9875 36.0125V33.9584H0V30.651H3.9875V30.4492L5.15937 30.4453V34.8406H34.8414V5.15852H5.15937V29.2773L3.9875 29.2812V29.0365H0V25.7291H3.9875V24.1146H0V20.8073H3.9875V19.1927H0V15.8854H3.9875V14.2709H0V10.9635H3.9875V9.34898H0ZM3.98719 7.21352H1.17188V8.17711H3.98719V7.21352ZM8.17711 1.17188H7.21352V3.98719H8.17711V1.17188ZM13.099 1.17188H12.1354V3.98719H13.099V1.17188ZM18.0209 1.17188H17.0573V3.98719H18.0209V1.17188ZM27.8646 1.17188H26.9011V3.98719H27.8646V1.17188ZM32.7865 1.17188H31.823V3.98719H32.7865V1.17188ZM36.0128 8.17711H38.8281V7.21352H36.0128V8.17711ZM36.0128 13.099H38.8281V12.1354H36.0128V13.099ZM36.0128 18.0209H38.8281V17.0573H36.0128V18.0209ZM36.0128 27.8646H38.8281V26.901H36.0128V27.8646ZM36.0128 32.7865H38.8281V31.8229H36.0128V32.7865ZM31.8229 38.8281H32.7865V36.0128H31.823L31.8229 38.8281ZM26.901 38.8281H27.8645V36.0128H26.901V38.8281ZM21.9791 38.8281H22.9427V36.0128H21.9791V38.8281ZM17.0573 38.8281H18.0209V36.0128H17.0573V38.8281ZM12.1354 38.8281H13.099V36.0128H12.1354V38.8281ZM7.21352 38.8281H8.17711V36.0128H7.21352V38.8281ZM3.98719 31.8229H1.17188V32.7865H3.98719V31.8229ZM36.0128 22.9427H38.8281V21.9791H36.0128V22.9427ZM22.9427 1.17188H21.9792V3.98719H22.9427V1.17188ZM3.98719 26.901H1.17188V27.8646H3.98719V26.901ZM3.98719 21.9791H1.17188V22.9427H3.98719V21.9791ZM3.98719 17.0573H1.17188V18.0209H3.98719V17.0573ZM3.98719 12.1354H1.17188V13.099H3.98719V12.1354Z" fill="#1D1D1F"/>
<path d="M12.2617 16.0547V14.8828H13.6651V13.6651H14.8828V12.2656L16.0547 12.2617V13.6651H17.1484V12.2656L18.3203 12.2617V13.6651H19.4141V12.2656L20.5859 12.2617V13.6651H21.6797V12.2656L22.8516 12.2617V13.6651H23.9453V12.2656L25.1172 12.2617V13.6651H26.3349V14.8828H27.7344L27.7383 16.0508L26.3349 16.0535V17.1484H27.7344L27.7383 18.3164L26.3349 18.3191V19.4141H27.7344L27.7383 20.582L26.3349 20.5848V21.6797H27.7344L27.7383 22.8477L26.3349 22.8504V23.9453H27.7344L27.7383 25.1133L26.3349 25.116V26.3349H25.1172V27.7344L23.9453 27.7383V26.3349H22.8516V27.7344L21.6797 27.7383V26.3349H20.5859V27.7344L19.4141 27.7383V26.3349H18.3203V27.7344L17.1484 27.7383V26.3349H16.0547V27.7344L14.8828 27.7383V26.3349H13.6651V25.1145L12.2617 25.1172V23.9453H13.6651V22.8488L12.2617 22.8516V21.6797H13.6651V20.5832L12.2617 20.5859V19.4141H13.6651V18.3176L12.2617 18.3203V17.1484H13.6651V16.052L12.2617 16.0547ZM14.837 25.163H25.163V14.837H14.837V25.163Z" fill="#1D1D1F"/>
<path d="M15.8851 20.3188H17.057V23.6H15.8851V20.3188Z" fill="white"/>
<path d="M15.8851 16.4125H17.057V17.5844H15.8851V16.4125Z" fill="white"/>
<path d="M15.8851 18.3656H17.057V19.5375H15.8851V18.3656Z" fill="white"/>
<path d="M24.0406 24.182L21.3891 24.1859V23.0141H24.0367L24.0406 24.182Z" fill="#1D1D1F"/>
<path d="M18.3719 7.10938H19.5438V8.28125H18.3719V7.10938Z" fill="white"/>
<path d="M20.325 7.10938H21.4969V8.28125H20.325V7.10938Z" fill="white"/>
<path d="M7.0047 7.10938H17.5906V8.28125H7.0047V7.10938Z" fill="white"/>
<path d="M28.5117 17.1484H30.9375V12.0312H33.9196L33.9235 13.2031H32.1094V18.3164L28.5117 18.3203V17.1484Z" fill="#1D1D1F"/>
<path d="M28.5117 14.8867L29.1016 14.8828V7.10938H33.9196L33.9235 8.28125H30.2735V16.0508L28.5117 16.0547V14.8867Z" fill="#1D1D1F"/>
<path d="M33.2164 19.4141V21.875H33.9196L33.9235 23.0469H32.0446V20.5859H28.5156L28.5117 19.418L33.2164 19.4141Z" fill="#1D1D1F"/>
<path d="M28.5117 21.6836L31.6406 21.6797V26.7969H33.9196L33.9235 27.9648L30.4688 27.9688V22.8516H28.5156L28.5117 21.6836Z" fill="#1D1D1F"/>
<path d="M33.9193 31.7188V32.8906H28.9193V25.1172H28.5156V23.9453H30.0912V31.7188H33.9193Z" fill="#1D1D1F"/>
<path d="M21.0674 31.7188H25.4945V32.8906H21.0674V31.7188Z" fill="white"/>
<path d="M17.1617 31.7188H18.3336V32.8906H17.1617V31.7188Z" fill="white"/>
<path d="M19.1149 31.7188H20.2867V32.8906H19.1149V31.7188Z" fill="white"/>
<path d="M6.5625 10.4818H10.3516V14.2709H6.5625V10.4818ZM7.73438 13.099H9.17969V11.6537H7.73438V13.099Z" fill="#1D1D1F"/>
<path d="M6.5625 14.8828H10.3516V18.6719H6.5625V14.8828ZM7.73438 17.5H9.17969V16.0547H7.73438V17.5Z" fill="#1D1D1F"/>
<path d="M7.10938 21.725L8.28125 21.721V26.6469L7.10938 26.6508V21.725Z" fill="#1D1D1F"/>
</g>
<defs>
<clipPath id="clip0_1143_2761">
<rect width="40" height="40" fill="white" transform="matrix(-1 0 0 1 40 0)"/>
</clipPath>
</defs>
</svg>
