<svg width="24" height="24" viewBox="0 0 24 24" fill="none" xmlns="http://www.w3.org/2000/svg">
<path d="M21.3169 10.125H17.3081C16.8626 10.125 16.5 10.4876 16.5 10.9331V19.4419C16.5 19.8874 16.8626 20.25 17.3077 20.25H21.3165C21.7624 20.25 22.125 19.8874 22.125 19.4419V10.9331C22.125 10.4876 21.7624 10.125 21.3169 10.125ZM19.875 19.125H18.75C18.5426 19.125 18.375 18.957 18.375 18.75C18.375 18.543 18.5426 18.375 18.75 18.375H19.875C20.0824 18.375 20.25 18.543 20.25 18.75C20.25 18.957 20.0824 19.125 19.875 19.125Z" fill="#AD63F6"/>
<path d="M20.25 9.375V5.16713C20.25 4.794 20.0989 4.42912 19.8349 4.1655C19.5671 3.89737 19.2109 3.75 18.8325 3.75H3.29213C2.51063 3.75 1.875 4.38563 1.875 5.16713V14.3329C1.875 14.706 2.02612 15.0712 2.28975 15.3345C2.55412 15.5989 2.919 15.75 3.29213 15.75H15.75V10.9331C15.75 10.074 16.4486 9.375 17.3077 9.375H20.25ZM11.625 14.4199H10.5C10.293 14.4199 10.125 14.2519 10.125 14.0449C10.125 13.8379 10.293 13.6699 10.5 13.6699H11.625C11.832 13.6699 12 13.8379 12 14.0449C12 14.2519 11.832 14.4199 11.625 14.4199Z" fill="#AD63F6"/>
<path d="M15 19.5H13.5V16.5H8.625V19.5H7.125C6.918 19.5 6.75 19.668 6.75 19.875C6.75 20.082 6.918 20.25 7.125 20.25H8.625H13.5H15C15.2074 20.25 15.375 20.082 15.375 19.875C15.375 19.668 15.2074 19.5 15 19.5Z" fill="#AD63F6"/>
</svg>
