<svg width="26" height="26" viewBox="0 0 26 26" fill="none" xmlns="http://www.w3.org/2000/svg">
<path d="M10.5137 14.3432C10.432 14.3432 8.71941 14.3437 7.92953 14.3429C7.52289 14.3427 7.37781 14.1965 7.37781 13.7873C7.37729 12.7361 7.37703 11.6849 7.37781 10.6338C7.37807 10.2297 7.53147 10.0755 7.93291 10.0753C8.72279 10.0748 10.4261 10.075 10.5137 10.075C10.5137 10.003 10.5134 8.48537 10.5137 7.78649C10.5142 6.75325 10.6985 5.76421 11.2235 4.85863C11.7609 3.93173 12.543 3.29681 13.5453 2.92969C14.1872 2.69439 14.8536 2.60053 15.5348 2.60001C16.3871 2.59949 17.2394 2.60027 18.0919 2.60183C18.4582 2.60235 18.6207 2.76433 18.6215 3.13327C18.6231 4.12205 18.6231 5.11083 18.6215 6.09935C18.621 6.47219 18.4653 6.62195 18.0906 6.62611C17.392 6.63365 16.6928 6.62897 15.995 6.65705C15.2901 6.65705 14.9194 7.00129 14.9194 7.73085C14.9025 8.50253 14.9124 9.27499 14.9124 10.0748C14.9784 10.0748 16.9843 10.0745 17.9219 10.0748C18.3477 10.0748 18.4933 10.2211 18.4933 10.6494C18.4933 11.6948 18.4931 12.7405 18.4923 13.786C18.492 14.208 18.3553 14.3427 17.9268 14.3429C16.9892 14.3434 14.9911 14.3432 14.9038 14.3432V22.8049C14.9038 23.256 14.7618 23.3998 14.3167 23.3998C13.2315 23.3998 12.146 23.4 11.0607 23.3998C10.6673 23.3998 10.5139 23.2469 10.5139 22.8535C10.5137 20.0978 10.5137 14.4399 10.5137 14.3432Z" fill="#3D6AD6"/>
</svg>
