<svg width="40" height="40" viewBox="0 0 40 40" fill="none" xmlns="http://www.w3.org/2000/svg">
<g clip-path="url(#clip0_1143_2966)">
<path d="M29.3334 6L26.1134 35.3334H13.22L10 6H29.3334Z" fill="#1566C0"/>
<path d="M27.3334 6L24.1134 35.3334H13.22L10 6H27.3334Z" fill="#2296F3"/>
<path d="M25.5553 28.6666V34.6666H22.4953C22.3206 34.668 22.1532 34.7373 22.0287 34.86L18.8887 38L15.7487 34.86C15.6242 34.7373 15.4568 34.668 15.282 34.6666H4.22205V28.6666H25.5553Z" fill="#2E7D32"/>
<path d="M23.5553 28.6666V34.6666H20.4953C20.3206 34.668 20.1532 34.7373 20.0287 34.86L16.8887 38L13.7487 34.86C13.6242 34.7373 13.4568 34.668 13.282 34.6666H4.22205V28.6666H23.5553Z" fill="#4CAF50"/>
<path d="M27.5487 27.8534C27.5894 28.4076 27.3977 28.9537 27.0196 29.3609C26.6415 29.7681 26.111 29.9997 25.5553 30H4.33334C3.25639 30.023 2.34108 29.2178 2.2267 28.1466C2.18592 27.5921 2.37788 27.0456 2.75639 26.6384C3.13499 26.2311 3.666 25.9998 4.22202 26H25.442C25.4799 25.9989 25.5179 26.0011 25.5554 26.0066C26.5887 26.0355 27.4411 26.8252 27.5487 27.8534Z" fill="#4E342E"/>
<path d="M25.3274 27.1866C25.3681 27.7409 25.1763 28.2872 24.7981 28.6945C24.4198 29.1017 23.8892 29.3331 23.3334 29.3333H4.11399C3.03704 29.3563 2.12173 28.5511 2.00735 27.4799C1.96657 26.9259 2.15821 26.3798 2.53618 25.9726C2.91415 25.5654 3.44446 25.3338 4.00001 25.3332H23.22C23.2579 25.3321 23.2959 25.3343 23.3334 25.3398C24.367 25.3685 25.2198 26.1582 25.3274 27.1866Z" fill="#795548"/>
<path d="M25.3334 20.6666V25.34C25.2959 25.3345 25.2579 25.3323 25.22 25.3334H15.6066C15.4319 25.3348 15.2645 25.4041 15.14 25.5267L11.3334 29.3334L7.52672 25.5267C7.40219 25.4041 7.23484 25.3348 7.06008 25.3334H4V20.6667H25.3334V20.6666Z" fill="#FDD834"/>
<path d="M23.3334 21V25.6734C23.2959 25.6678 23.2579 25.6656 23.22 25.6667H13.6066C13.4319 25.6681 13.2645 25.7374 13.14 25.8601L10.3334 28.6667L7.52672 25.8601C7.40219 25.7374 7.23484 25.6681 7.06008 25.6667H4V21H23.3334Z" fill="#FFEB3A"/>
<path d="M27.5553 21.3334V22C27.5553 22.3682 27.2569 22.6666 26.8887 22.6666H2.88869C2.52048 22.6666 2.22205 22.3681 2.22205 22V21.3334C2.22205 17.6515 5.20681 14.6667 8.88869 14.6667H20.8887C24.5706 14.6666 27.5553 17.6514 27.5553 21.3334Z" fill="#F57C00"/>
<path d="M24.8887 21.3334V22C24.8887 22.3682 24.5903 22.6666 24.222 22.6666H2.88869C2.52048 22.6666 2.22205 22.3681 2.22205 22V21.3334C2.22205 17.6515 5.20681 14.6667 8.88869 14.6667H18.222C21.9039 14.6666 24.8887 17.6514 24.8887 21.3334Z" fill="#FF9801"/>
<path d="M24.8887 34V36C24.8887 38.2091 23.0978 40 20.8887 40H6.22205C4.01291 40 2.22205 38.2091 2.22205 36V34C2.22205 33.6318 2.52056 33.3334 2.88869 33.3334H15.282C15.4568 33.3348 15.6242 33.4041 15.7487 33.5267L18.8887 36.6667L22.0287 33.5267C22.1532 33.4041 22.3206 33.3348 22.4953 33.3334H24.222C24.5902 33.3334 24.8887 33.6318 24.8887 34Z" fill="#FF9801"/>
<path d="M28.6667 2V4.66664H10.6667V2C10.6689 1.26453 11.2646 0.668829 12 0.666641H27.3334C28.0689 0.668829 28.6645 1.26453 28.6667 2Z" fill="#CFD8DC"/>
<path d="M30.6667 4.66664V6C30.6667 6.3682 30.3682 6.66664 30 6.66664H9.33339C8.96519 6.66664 8.66675 6.3682 8.66675 6V4.66664C8.66894 3.93117 9.26464 3.33547 10.0001 3.33328H29.3335C30.0689 3.33555 30.6645 3.93117 30.6667 4.66664Z" fill="#CFD8DC"/>
<path d="M26.6666 2V4.66664H8.66663C8.66881 3.93117 9.26452 3.33547 9.99999 3.33328H10.6666V2C10.6688 1.26453 11.2645 0.668829 12 0.666641H25.3333C26.0688 0.668829 26.6644 1.26453 26.6666 2Z" fill="#F4F4F4"/>
<path d="M28.6666 4.66664V6C28.6666 6.3682 28.3682 6.66664 28 6.66664H9.33333C8.96512 6.66664 8.66669 6.3682 8.66669 6V4.66664C8.66887 3.93117 9.26458 3.33547 10 3.33328H27.3334C28.0688 3.33555 28.6644 3.93117 28.6666 4.66664Z" fill="#F4F4F4"/>
<path d="M37.9934 22.6L35.4267 39.3334H20.5666L18.0066 22.6067C17.9641 22.3427 18.1282 22.0891 18.3866 22.0201C18.432 22.0065 18.4792 21.9997 18.5266 22.0001H19.1C19.18 22.0001 19.2534 22.0067 19.3334 22.0134L34.0534 22.1401L35.8467 22.1534H36.0001C36.2893 22.0519 36.5936 22.0001 36.9001 22.0001H37.4667C37.6204 21.9977 37.7673 22.0628 37.8688 22.1784C37.9701 22.2938 38.0156 22.448 37.9934 22.6Z" fill="#C52828"/>
<path d="M35.9934 22.6L33.4267 39.3334H20.5666L18.0066 22.6067C17.9641 22.3427 18.1282 22.0891 18.3866 22.0201L34 22.1534C34.0169 22.1459 34.0349 22.1414 34.0534 22.1401C34.3257 22.0462 34.612 21.9988 34.9 22.0001H35.4666C35.6082 22.0011 35.7441 22.0559 35.8466 22.1534C35.9648 22.2698 36.0194 22.4362 35.9934 22.6Z" fill="#F44335"/>
<path d="M29.3394 27.6734C28.2144 27.8545 27.0644 27.8045 25.9594 27.5267L26.0001 27.3334V15.8534C26.0004 15.5663 26.233 15.3337 26.5201 15.3334H28.8134C29.1004 15.3337 29.333 15.5663 29.3334 15.8534V27.6267L29.3394 27.6734Z" fill="#FFB301"/>
<path d="M22.6667 19.3334V25.5C22.1964 24.9426 21.8203 24.312 21.5533 23.6334C21.1785 22.7175 20.3198 22.0909 19.3333 22.0134V19.8534C19.3337 19.5663 19.5663 19.3337 19.8533 19.3334H22.6667Z" fill="#FFB301"/>
<path d="M26 16.4734V27.14L25.96 27.3334H25.9534C24.6687 27.028 23.5164 26.3175 22.6667 25.3067V16.9934C22.6671 16.7063 22.8997 16.4737 23.1867 16.4734H26Z" fill="#FDD834"/>
<path d="M32.7334 26.1066C31.7824 26.9534 30.6013 27.4987 29.34 27.6733L29.3334 27.6266V16.6666H32C32.3682 16.6666 32.6667 16.9652 32.6667 17.3333V26.0266L32.7334 26.1066Z" fill="#FDD834"/>
<path d="M36 19.1866V22.1533C35.2934 22.4 34.7273 22.9394 34.4467 23.6333C34.0782 24.5794 33.4937 25.4263 32.74 26.1066H32.7334L32.6667 26.0266V18.6666H35.4801C35.7671 18.667 35.9996 18.8996 36 19.1866Z" fill="#FFB301"/>
<path d="M30.6666 33.6666C30.6666 35.3235 29.3235 36.6666 27.6666 36.6666C27.3258 36.6677 26.9873 36.6091 26.6666 36.4933C25.4705 36.068 24.6716 34.936 24.6716 33.6666C24.6716 32.3973 25.4706 31.2652 26.6666 30.84C26.9873 30.7243 27.3258 30.6656 27.6666 30.6666C29.3235 30.6666 30.6666 32.0098 30.6666 33.6666Z" fill="#CFD8DC"/>
<path d="M26.6666 36.4933C27.7712 36.4933 28.6666 35.2278 28.6666 33.6666C28.6666 32.1055 27.7712 30.84 26.6666 30.84C25.5621 30.84 24.6666 32.1055 24.6666 33.6666C24.6666 35.2278 25.5621 36.4933 26.6666 36.4933Z" fill="#F4F4F4"/>
<path d="M8.66664 18H9.33328C9.70148 18 9.99992 17.7015 9.99992 17.3334C9.99992 16.9652 9.70141 16.6667 9.33328 16.6667H8.66664C8.29844 16.6667 8 16.9652 8 17.3334C8 17.7015 8.29852 18 8.66664 18Z" fill="black"/>
<path d="M12.6666 19.3334H13.3333C13.7015 19.3334 13.9999 19.0348 13.9999 18.6667C13.9999 18.2985 13.7014 18.0001 13.3333 18.0001H12.6666C12.2984 18.0001 12 18.2986 12 18.6667C12 19.0348 12.2985 19.3334 12.6666 19.3334Z" fill="black"/>
<path d="M16.6666 18H17.3333C17.7015 18 17.9999 17.7015 17.9999 17.3334C17.9999 16.9652 17.7014 16.6667 17.3333 16.6667H16.6666C16.2984 16.6667 16 16.9652 16 17.3334C16 17.7015 16.2985 18 16.6666 18Z" fill="black"/>
<path d="M39.3334 38.6666H36.2041L38.6541 22.6953C38.7041 22.3539 38.6025 22.0077 38.3761 21.7473C38.1476 21.4837 37.8156 21.3326 37.4668 21.3334H36.8955C36.8168 21.3334 36.7415 21.3454 36.6641 21.35V19.1866C36.6637 18.5324 36.1343 18.0018 35.4802 18H33.3335V16.6666C33.3335 16.2984 33.0351 16 32.6669 16H30V15.8534C29.9988 15.2984 29.6135 14.8181 29.072 14.6967L29.9267 7.33336H30.6667C31.0349 7.33336 31.3334 7.03484 31.3334 6.66672V4.66672C31.3334 3.56219 30.4379 2.66672 29.3334 2.66672V2C29.3334 0.895469 28.4379 0 27.3334 0H12C10.8955 0 10 0.895469 10 2V2.66664C8.89547 2.66664 8 3.56211 8 4.66664V6.66664C8 7.03484 8.29852 7.33328 8.66664 7.33328H9.40664L10.1046 13.3333H8.66664C4.61852 13.338 1.33805 16.6185 1.33328 20.6666V21.3333C1.33328 22.0697 1.93023 22.6666 2.66664 22.6666H3.33328V24.7613C2.0843 25.0744 1.24289 26.2422 1.34125 27.526C1.44164 28.6527 2.23875 29.595 3.33328 29.8807V32H2.66664C1.93023 32 1.33328 32.597 1.33328 33.3334V35.3334C1.33312 36.5887 1.84047 37.7909 2.73992 38.6667H0.666641C0.298438 38.6667 0 38.9652 0 39.3334C0 39.7016 0.298516 40 0.666641 40H39.3333C39.7015 40 39.9999 39.7016 39.9999 39.3334C40 38.9652 39.7016 38.6666 39.3334 38.6666ZM37.3094 22.6666L34.8554 38.6667H21.1393L18.69 22.6666L19.0973 22.6667C19.8986 22.6613 20.6238 23.1403 20.9334 23.8794C21.2264 24.6216 21.6374 25.3116 22.1507 25.9227C22.1743 25.9558 22.2011 25.9863 22.2307 26.0141C23.7015 27.6351 25.8127 28.5245 28 28.4448C31.3334 28.4448 33.9066 26.7781 35.0666 23.8787C35.3757 23.1415 36.0986 22.6631 36.898 22.6667L37.3094 22.6666ZM28.6666 16V27.0707C28.4459 27.088 28.228 27.1114 28 27.1114C27.5528 27.1085 27.1068 27.0673 26.6666 26.988V16H28.6666ZM25.3334 17.3334V26.62C24.5709 26.3149 23.8873 25.8416 23.3334 25.2353V17.3334H25.3334ZM22 23.038C21.5762 22.2613 20.8538 21.6912 20 21.4593V20H22V23.038ZM18.26 28.6666H12.942L15.6087 26H17.854L18.26 28.6666ZM35.3334 19.3334V21.7227C34.6478 22.078 34.1125 22.6675 33.8247 23.384C33.6884 23.7197 33.524 24.0433 33.3334 24.3513V19.3334H35.3334ZM32 17.3334V25.3334V25.34V25.8453C31.4061 26.309 30.7264 26.6506 30 26.8506V17.3334H32ZM11.3334 2C11.3334 1.6318 11.6318 1.33336 12 1.33336H27.3334C27.7016 1.33336 28 1.63188 28 2V2.66664H11.3334V2ZM9.33336 4.66664C9.33336 4.29844 9.63188 4 10 4H29.3334C29.7016 4 30 4.29852 30 4.66664V6H9.33336V4.66664ZM10.7487 7.33336H28.5847L27.7334 14.6667H26.52C26.1231 14.667 25.7527 14.8657 25.5327 15.196C24.2766 14.0656 22.6651 13.4098 20.9766 13.342C20.8733 13.3334 20.77 13.3334 20.6666 13.3334H11.4466L10.7487 7.33336ZM2.66664 20.6666C2.6707 17.3546 5.35461 14.6707 8.66664 14.6666H20.6666C20.7366 14.6666 20.8059 14.6666 20.9013 14.6727C22.1884 14.7224 23.4247 15.1882 24.4247 16H23.1867C22.5315 16.0004 22.0004 16.5314 22.0001 17.1866V18.6666H19.8534C19.1982 18.667 18.6671 19.198 18.6668 19.8533V21.3333H2.6668V20.6666H2.66664ZM17.3453 22.6666C17.3453 22.6793 17.3453 22.692 17.3453 22.7046L17.648 24.6666H15.6066C15.2543 24.6669 14.9163 24.8066 14.6666 25.0553L11.3333 28.3887L8 25.0553C7.75031 24.8066 7.41234 24.6669 7.06 24.6666H4.66664V22.6666H17.3453ZM2.67133 27.43C2.63984 27.0436 2.78148 26.6631 3.05797 26.3913C3.30695 26.1401 3.64625 25.9991 4 26H7.05531L9.72195 28.6666H4.11336C3.38633 28.6862 2.76289 28.1515 2.67133 27.43ZM4.66664 30H18.4666L19.1653 34.5613L18.6666 35.0573L16 32.3907C15.7506 32.1413 15.4127 32.0008 15.06 32H4.66664V30ZM2.66664 35.3334V33.3334H4H15.054L18.194 36.4734C18.4543 36.7336 18.8763 36.7336 19.1366 36.4734L19.4113 36.1987L19.79 38.6653H6C4.16047 38.6631 2.66961 37.1729 2.66664 35.3334Z" fill="black"/>
<path d="M27.6667 30C26.1836 30 24.8467 30.8934 24.2791 32.2635C23.7116 33.6337 24.0253 35.2108 25.0739 36.2594C26.1226 37.308 27.6997 37.6217 29.0698 37.0542C30.4399 36.4867 31.3333 35.1497 31.3333 33.6666C31.3311 31.6426 29.6908 30.0022 27.6667 30ZM27.6667 36C26.378 36 25.3333 34.9553 25.3333 33.6666C25.3333 32.378 26.378 31.3333 27.6667 31.3333C28.9553 31.3333 30 32.378 30 33.6666C30 34.9553 28.9553 36 27.6667 36Z" fill="black"/>
</g>
<defs>
<clipPath id="clip0_1143_2966">
<rect width="40" height="40" fill="white"/>
</clipPath>
</defs>
</svg>
