<svg width="24" height="24" viewBox="0 0 24 24" fill="none" xmlns="http://www.w3.org/2000/svg">
<path fill-rule="evenodd" clip-rule="evenodd" d="M12.0703 0.926018L14.9786 2.60513C15.0721 2.65913 15.0721 2.79469 14.9786 2.84869L5.8438 8.12269C5.79908 8.14852 5.74789 8.14852 5.70317 8.12269L2.79486 6.44358C2.70134 6.38958 2.70134 6.25402 2.79486 6.20002L11.9297 0.926018C11.9744 0.90019 12.0256 0.90019 12.0703 0.926018ZM15.9132 3.14475C15.8685 3.11892 15.8173 3.11892 15.7726 3.14475L6.63781 8.4187C6.5443 8.47271 6.5443 8.60827 6.63781 8.66227L8.41278 9.68705C8.4575 9.71288 8.50869 9.71288 8.55341 9.68705L17.6882 4.41305C17.7817 4.35905 17.7817 4.22349 17.6882 4.16949L15.9132 3.14475ZM18.6241 4.70986C18.5794 4.68403 18.5282 4.68403 18.4835 4.70986L9.34873 9.98386C9.25522 10.0379 9.25522 10.1734 9.34873 10.2274L11.9297 11.7175C11.9744 11.7434 12.0256 11.7434 12.0703 11.7175L21.2052 6.44353C21.2987 6.38953 21.2987 6.25397 21.2052 6.19997L18.6241 4.70986ZM21.7428 7.13119C21.7428 7.02258 21.6259 6.95508 21.5318 7.00941L12.3984 12.2826C12.3537 12.3084 12.3281 12.3527 12.3281 12.4043V22.9524C12.3281 23.061 12.445 23.1285 12.539 23.0742L21.6725 17.801C21.7172 17.7752 21.7428 17.7309 21.7428 17.6792V7.13119ZM11.461 23.0742C11.555 23.1285 11.6719 23.0611 11.6719 22.9524V12.4044C11.6719 12.3527 11.6463 12.3084 11.6016 12.2826L9.02281 10.7938C8.92878 10.7394 8.81187 10.8069 8.81187 10.9155V14.7928C8.81187 15.0681 8.53109 15.1978 8.2962 15.0624L5.60947 13.5113C5.5048 13.4506 5.4455 13.3409 5.44541 13.228V8.8095C5.44541 8.75785 5.41981 8.71355 5.37509 8.68772L2.46814 7.00941C2.37411 6.95513 2.2572 7.02258 2.2572 7.13119V17.6792C2.2572 17.7309 2.2828 17.7752 2.32751 17.801L11.461 23.0742ZM6.31255 9.22899L8.08531 10.2525C8.13003 10.2783 8.15562 10.3226 8.15562 10.3743V13.9818C8.15562 14.0904 8.03876 14.1579 7.94469 14.1036L6.17192 13.08C6.1272 13.0542 6.10161 13.0099 6.10161 12.9583V9.35077C6.10161 9.24216 6.21847 9.17466 6.31255 9.22899Z" fill="#3584FC"/>
</svg>
