<svg width="24" height="24" viewBox="0 0 24 24" fill="none" xmlns="http://www.w3.org/2000/svg">
<path d="M16.5 6.375C16.5 7.26502 16.2361 8.13505 15.7416 8.87507C15.2471 9.61509 14.5443 10.1919 13.7221 10.5325C12.8998 10.8731 11.995 10.9622 11.1221 10.7885C10.2492 10.6149 9.44736 10.1863 8.81802 9.55698C8.18868 8.92764 7.7601 8.12582 7.58647 7.25291C7.41283 6.37999 7.50195 5.47519 7.84254 4.65292C8.18314 3.83066 8.75991 3.12785 9.49993 2.63339C10.24 2.13892 11.11 1.875 12 1.875C13.1935 1.875 14.3381 2.34911 15.182 3.19302C16.0259 4.03693 16.5 5.18153 16.5 6.375ZM22.125 18.375C22.1257 19.1244 21.9041 19.8572 21.4883 20.4806C21.0724 21.1041 20.4809 21.5901 19.7886 21.8772C19.0964 22.1644 18.3346 22.2397 17.5995 22.0937C16.8645 21.9476 16.1893 21.5868 15.6593 21.0569C15.1294 20.527 14.7686 19.8518 14.6226 19.1167C14.4766 18.3817 14.5519 17.6198 14.839 16.9276C15.1262 16.2354 15.6122 15.6439 16.2356 15.228C16.859 14.8121 17.5918 14.5905 18.3412 14.5912C19.3448 14.5913 20.3072 14.9899 21.0168 15.6995C21.7264 16.4091 22.125 17.3715 22.125 18.375ZM20.625 18.375C20.625 18.2755 20.5855 18.1802 20.5152 18.1098C20.4448 18.0395 20.3495 18 20.25 18H18.75V16.5C18.75 16.4005 18.7105 16.3052 18.6402 16.2348C18.5698 16.1645 18.4745 16.125 18.375 16.125C18.2755 16.125 18.1802 16.1645 18.1098 16.2348C18.0395 16.3052 18 16.4005 18 16.5V18H16.5C16.4005 18 16.3052 18.0395 16.2348 18.1098C16.1645 18.1802 16.125 18.2755 16.125 18.375C16.125 18.4745 16.1645 18.5698 16.2348 18.6402C16.3052 18.7105 16.4005 18.75 16.5 18.75H18V20.25C18 20.3495 18.0395 20.4448 18.1098 20.5152C18.1802 20.5855 18.2755 20.625 18.375 20.625C18.4745 20.625 18.5698 20.5855 18.6402 20.5152C18.7105 20.4448 18.75 20.3495 18.75 20.25V18.75H20.25C20.3495 18.75 20.4448 18.7105 20.5152 18.6402C20.5855 18.5698 20.625 18.4745 20.625 18.375ZM13.8038 18.375C13.8061 17.1974 14.2657 16.0668 15.0856 15.2217C15.9056 14.3765 17.0218 13.8829 18.1987 13.845C17.6756 13.4917 17.1032 13.2175 16.5 13.0312C16.3237 12.975 16.1475 12.9338 15.9675 12.8925L15.81 12.8625C15.6675 12.8362 15.525 12.8175 15.3787 12.7987L15.21 12.78C15.0188 12.78 14.835 12.75 14.625 12.75H9.375C9.17625 12.75 8.98125 12.75 8.79 12.78L8.62125 12.7987C8.475 12.7987 8.3325 12.8362 8.19 12.8625L8.03625 12.8925C7.8525 12.9338 7.66125 12.975 7.5 13.0312C6.19689 13.4323 5.05667 14.2405 4.24674 15.3373C3.43681 16.434 2.99985 17.7616 3 19.125C3 19.9206 3.31607 20.6837 3.87868 21.2463C4.44129 21.8089 5.20435 22.125 6 22.125H15.7913C15.1796 21.7091 14.6789 21.15 14.3325 20.4965C13.9861 19.8429 13.8046 19.1147 13.8038 18.375Z" fill="#605DFF"/>
</svg>
