<svg width="24" height="24" viewBox="0 0 24 24" fill="none" xmlns="http://www.w3.org/2000/svg">
<g clip-path="url(#clip0_1244_3494)">
<path d="M20.147 3.85017C16.4469 0.149593 10.7596 -0.552477 6.29497 2.00921L6.53872 1.12087C6.59145 0.928919 6.47872 0.730873 6.287 0.678373C6.09504 0.625638 5.897 0.738138 5.8445 0.930091L5.36356 2.68251C5.33825 2.77462 5.35067 2.87306 5.39778 2.95603C5.44512 3.039 5.5234 3.0997 5.61551 3.12501L7.36817 3.60595C7.55499 3.65815 7.75693 3.54913 7.81044 3.354C7.86317 3.16228 7.75044 2.96423 7.55848 2.91173L6.6109 2.65161C10.8024 0.224095 16.1584 0.879467 19.6379 4.35923C23.3097 8.03095 23.8487 13.8008 20.9197 18.0786C20.8072 18.2427 20.8492 18.4667 21.0132 18.579C21.1769 18.691 21.4011 18.65 21.5136 18.4855C24.6386 13.922 24.0636 7.76681 20.147 3.85017Z" fill="#9135E8"/>
<path d="M18.3831 20.8667L16.6307 20.3858C16.4392 20.3323 16.2409 20.4458 16.1882 20.6375C16.1354 20.8295 16.2482 21.0275 16.4399 21.08L17.3766 21.3371C13.1872 23.7581 7.84033 23.107 4.36511 19.6323C0.691281 15.9582 0.150577 10.187 3.07956 5.90914C3.19206 5.74508 3.15011 5.52101 2.98605 5.40875C2.82175 5.29648 2.59792 5.33797 2.48566 5.50226C-0.639266 10.0658 -0.0629382 16.2226 3.85605 20.1413C6.08355 22.3688 9.03433 23.5152 12.0053 23.5152C13.9647 23.5152 15.9283 23.0046 17.7022 21.987L17.4596 22.8709C17.4069 23.0628 17.5196 23.2609 17.7114 23.3134C17.7435 23.3223 17.7753 23.3263 17.807 23.3263C17.965 23.3263 18.11 23.2215 18.1539 23.0616L18.6348 21.3092C18.6875 21.1173 18.5748 20.9192 18.3831 20.8667Z" fill="#9135E8"/>
<path d="M12.0014 4.38315C7.81928 4.38315 4.43042 7.77189 4.43042 11.9541C4.43042 13.6378 4.98475 15.1907 5.91498 16.4484C6.60932 14.585 8.20236 13.0171 10.3469 12.4796C9.59332 11.9546 9.09817 11.0831 9.09817 10.0971C9.09817 8.49634 10.4006 7.19392 12.0014 7.19392C13.6022 7.19392 14.9046 8.49634 14.9046 10.0971C14.9046 11.0809 14.4115 11.9505 13.6608 12.4758C15.6817 12.9866 17.3492 14.4623 18.0871 16.4494C19.0178 15.1915 19.5724 13.6383 19.5724 11.9541C19.5724 7.77189 16.1836 4.38315 12.0014 4.38315Z" fill="#9135E8"/>
<path d="M6.45901 17.0998C6.69193 17.3502 6.93524 17.5897 7.1997 17.8061C8.50681 18.8828 10.1805 19.5251 12.0014 19.5251C13.8224 19.5251 15.496 18.8828 16.8032 17.8061C17.0673 17.5899 17.3105 17.3506 17.5432 17.1006C16.8423 14.6785 14.6263 12.9996 12.0871 12.9996H12.0152C12.0105 12.9996 12.0061 13.0003 12.0014 13.0003C11.9967 13.0003 11.9922 12.9996 11.9875 12.9996H11.9158C9.2474 12.9996 7.11529 14.8152 6.45901 17.0998Z" fill="#9135E8"/>
<path d="M12.0083 12.2796C13.2088 12.2757 14.1846 11.2985 14.1846 10.0971C14.1846 8.89336 13.2051 7.91391 12.0014 7.91391C10.7976 7.91391 9.81818 8.89336 9.81818 10.0971C9.81818 11.2985 10.7939 12.2757 11.9944 12.2796H12.0083Z" fill="#9135E8"/>
</g>
<defs>
<clipPath id="clip0_1244_3494">
<rect width="24" height="24" fill="white"/>
</clipPath>
</defs>
</svg>
