<svg width="24" height="24" viewBox="0 0 24 24" fill="none" xmlns="http://www.w3.org/2000/svg">
<path fill-rule="evenodd" clip-rule="evenodd" d="M14.2395 4.21647C11.4172 8.37747 6.186 9.72672 6.186 9.72672C5.78475 9.82947 5.376 9.58722 5.27325 9.18597C5.1705 8.78472 5.41275 8.37597 5.814 8.27322C5.814 8.27322 10.7955 7.01097 13.2308 3.01272L11.7555 2.99997C11.3415 2.99622 11.0085 2.65722 11.0122 2.24322C11.016 1.82922 11.355 1.49622 11.769 1.49997L14.979 1.52847C15.3885 1.53147 15.7192 1.86222 15.7222 2.27172L15.75 5.40747C15.7537 5.82147 15.4208 6.16047 15.0068 6.16422C14.5928 6.16797 14.2537 5.83497 14.25 5.42097L14.2395 4.21647ZM7.86375 22.5H4.5C3.67125 22.5 3 21.8287 3 21V14.25C3 13.4212 3.67125 12.75 4.5 12.75H7.86375V22.5ZM9.36375 12.0262C9.36375 11.1832 10.047 10.5 10.89 10.5H13.0477C13.8907 10.5 14.574 11.1832 14.574 12.0262V22.5H9.36375V12.0262ZM16.074 9.02622C16.074 8.18322 16.7572 7.49997 17.5995 7.49997H19.5C20.3288 7.49997 21 8.17122 21 8.99997V21C21 21.8287 20.3288 22.5 19.5 22.5H16.074V9.02622Z" fill="#605DFF"/>
</svg>
