<svg width="26" height="26" viewBox="0 0 26 26" fill="none" xmlns="http://www.w3.org/2000/svg">
<g clip-path="url(#clip0_1113_887)">
<path d="M14.7369 3.69693C14.9705 2.67491 15.2739 2.11748 15.48 1.9367C16.1708 1.33047 17.2261 1.39928 17.8323 2.09016C18.126 2.42481 18.2717 2.85381 18.2428 3.2981C18.2138 3.74238 18.0135 4.14878 17.6788 4.44245C17.498 4.60119 17.0193 4.79655 16.199 4.90883H19.2675C19.5554 4.46017 19.7273 3.94393 19.7629 3.39727C19.8185 2.54689 19.5395 1.72586 18.9774 1.08535C17.8171 -0.236888 15.7974 -0.368615 14.4751 0.791635C13.7691 1.41117 13.3909 2.66414 13.1979 3.60614C13.1067 4.05123 13.0404 4.51126 13.0095 4.90883H14.5389C14.5691 4.59292 14.6296 4.1662 14.7369 3.69693Z" fill="#EE3E08"/>
<path d="M6.71846 4.90885H9.78692C8.9666 4.79662 8.48798 4.60121 8.3071 4.44247C7.97245 4.1488 7.77217 3.7424 7.74322 3.29812C7.71428 2.85383 7.86002 2.42483 8.15369 2.09018C8.48275 1.71521 8.94405 1.52352 9.40758 1.52352C9.79804 1.52352 10.1901 1.65956 10.506 1.93672C10.712 2.11755 11.0154 2.67493 11.2491 3.69695C11.3563 4.16617 11.4168 4.59294 11.4471 4.90885H12.9764C12.9455 4.51128 12.8792 4.05125 12.788 3.60616C12.5951 2.66416 12.2168 1.41119 11.5108 0.791656C10.1885 -0.368645 8.16887 -0.236868 7.00857 1.08537C6.44652 1.72588 6.16748 2.54696 6.22299 3.39729C6.25863 3.944 6.43058 4.46025 6.71846 4.90885Z" fill="#EE3E08"/>
<path d="M8.66008 17.0603C9.02378 17.2702 9.49056 17.1452 9.70059 16.7814C9.8023 16.6052 9.82932 16.3999 9.77671 16.2034C9.72405 16.0069 9.59801 15.8426 9.4218 15.7409C9.30216 15.6718 9.17135 15.639 9.04221 15.639C8.77876 15.639 8.52221 15.7756 8.38124 16.0197C8.27953 16.196 8.25246 16.4012 8.30512 16.5977C8.35778 16.7943 8.48387 16.9585 8.66008 17.0603Z" fill="#EE3E08"/>
<path d="M16.5761 21.6306C16.9399 21.8405 17.4066 21.7155 17.6166 21.3517C17.8266 20.988 17.7015 20.5212 17.3378 20.3112C17.2181 20.2422 17.0873 20.2094 16.9582 20.2094C16.6947 20.2094 16.4381 20.346 16.2972 20.5901C16.0872 20.9538 16.2123 21.4205 16.5761 21.6306Z" fill="#EE3E08"/>
<path d="M1.26846 23.7142C1.26846 24.9742 2.29358 25.9993 3.55362 25.9993H22.4442C23.7043 25.9993 24.7294 24.9742 24.7294 23.7142V11.3721H1.26846V23.7142ZM18.0995 18.9919C19.1907 19.6219 19.566 21.0222 18.9359 22.1134C18.5132 22.8456 17.7434 23.2556 16.9531 23.2556C16.5656 23.2556 16.1733 23.1571 15.8143 22.9499C14.7231 22.3199 14.3479 20.9195 14.9779 19.8283C15.6079 18.7371 17.0083 18.3618 18.0995 18.9919ZM15.4237 14.4858C15.788 14.6962 15.9128 15.162 15.7025 15.5263L11.6146 22.6068C11.4735 22.8511 11.2175 22.9877 10.9542 22.9877C10.825 22.9877 10.694 22.9548 10.5741 22.8856C10.2098 22.6752 10.085 22.2094 10.2953 21.8451L14.3832 14.7646C14.5936 14.4003 15.0593 14.2754 15.4237 14.4858ZM7.06194 15.258C7.69199 14.1667 9.09233 13.7916 10.1835 14.4215C10.7122 14.7267 11.0903 15.2195 11.2482 15.8091C11.4062 16.3987 11.3251 17.0145 11.0199 17.5431C10.5972 18.2753 9.82739 18.6852 9.03708 18.6852C8.64962 18.6852 8.25738 18.5868 7.89836 18.3795C7.36973 18.0743 6.99161 17.5816 6.83363 16.992C6.67565 16.4024 6.7567 15.7866 7.06194 15.258Z" fill="#EE3E08"/>
<path d="M25.2383 6.43555H0.761719C0.341047 6.43555 0 6.77659 0 7.19727V9.07724C0 9.49791 0.341047 9.83896 0.761719 9.83896H25.2383C25.659 9.83896 26 9.49791 26 9.07724V7.19727C26 6.77659 25.659 6.43555 25.2383 6.43555Z" fill="#EE3E08"/>
</g>
<defs>
<clipPath id="clip0_1113_887">
<rect width="26" height="26" fill="white"/>
</clipPath>
</defs>
</svg>
