<svg width="26" height="26" viewBox="0 0 26 26" fill="none" xmlns="http://www.w3.org/2000/svg">
<path fill-rule="evenodd" clip-rule="evenodd" d="M14.625 1.62744H6.5C5.15369 1.62744 4.0625 2.71863 4.0625 4.06494V20.592C4.0625 21.5296 4.60038 22.3844 5.44619 22.7898C6.292 23.1952 7.29463 23.0799 8.02588 22.4924L8.42887 22.1691C8.72624 21.931 9.14876 21.931 9.44613 22.1691L11.4757 23.7989C12.3662 24.5139 13.6329 24.5148 14.5251 23.8014L16.5563 22.1764C16.8529 21.9391 17.2738 21.9383 17.5703 22.1756L17.9912 22.5111C18.7233 23.0953 19.7251 23.2082 20.5692 22.802C21.4126 22.3957 21.9489 21.5418 21.9489 20.6058V8.9375H17.0625C16.4157 8.9375 15.7958 8.68075 15.3392 8.22331C14.8817 7.76669 14.625 7.14675 14.625 6.5V1.62744ZM15.2271 19.2343L17.6369 16.8244C17.8693 16.5921 17.9392 16.2427 17.8132 15.9388C17.6873 15.6358 17.3907 15.4375 17.0625 15.4375H8.9375C8.489 15.4375 8.125 15.8015 8.125 16.25C8.125 16.6985 8.489 17.0625 8.9375 17.0625H15.1011L14.0782 18.0854C13.7605 18.4023 13.7605 18.9174 14.0782 19.2343C14.3951 19.552 14.9102 19.552 15.2271 19.2343ZM10.7729 10.0157L8.36306 12.4256C8.13069 12.6579 8.06082 13.0073 8.18675 13.3112C8.31269 13.6142 8.60925 13.8125 8.9375 13.8125H17.0625C17.511 13.8125 17.875 13.4485 17.875 13C17.875 12.5515 17.511 12.1875 17.0625 12.1875H10.8989L11.9218 11.1646C12.2395 10.8477 12.2395 10.3326 11.9218 10.0157C11.6049 9.698 11.0898 9.698 10.7729 10.0157ZM16.25 1.72494V6.5C16.25 6.71531 16.3353 6.9225 16.4881 7.07444C16.64 7.22719 16.8472 7.3125 17.0625 7.3125H21.8538C21.7401 6.91762 21.5272 6.55444 21.2306 6.26031L17.2868 2.33675C16.9951 2.04669 16.6376 1.83787 16.25 1.72494Z" fill="#9135E8"/>
</svg>
