<svg width="24" height="24" viewBox="0 0 24 24" fill="none" xmlns="http://www.w3.org/2000/svg">
<path d="M11.326 0.614964C11.7078 0.266595 12.2922 0.266595 12.674 0.614964L14.4185 2.20663C14.646 2.41422 14.9565 2.50538 15.2601 2.45375L17.5882 2.0579C18.0977 1.97126 18.5894 2.2872 18.7222 2.7867L19.3293 5.06883C19.4084 5.36647 19.6203 5.61102 19.9037 5.73175L22.0762 6.65738C22.5517 6.85998 22.7945 7.39155 22.6362 7.88359L21.913 10.1316C21.8187 10.4248 21.8648 10.7451 22.0379 10.9999L23.3651 12.9531C23.6556 13.3806 23.5724 13.9591 23.1732 14.2874L21.3495 15.7876C21.1116 15.9833 20.9772 16.2776 20.9851 16.5855L21.0456 18.9462C21.0589 19.4629 20.6762 19.9046 20.1629 19.965L17.8176 20.2411C17.5117 20.2771 17.2395 20.452 17.0796 20.7153L15.8542 22.734C15.586 23.1758 15.0253 23.3404 14.5608 23.1138L12.4386 22.078C12.1618 21.943 11.8382 21.943 11.5614 22.078L9.43917 23.1138C8.97467 23.3404 8.41396 23.1758 8.14576 22.734L6.92036 20.7153C6.76054 20.452 6.48832 20.2771 6.18244 20.2411L3.83715 19.965C3.32383 19.9046 2.94114 19.4629 2.95438 18.9462L3.01489 16.5855C3.02278 16.2776 2.88835 15.9833 2.6505 15.7876L0.826769 14.2874C0.427607 13.9591 0.344441 13.3806 0.634926 12.9531L1.96212 10.9999C2.13522 10.7451 2.18127 10.4248 2.08696 10.1316L1.36381 7.88358C1.20554 7.39155 1.4483 6.85998 1.9238 6.65738L4.09631 5.73175C4.37966 5.61102 4.59157 5.36647 4.67074 5.06883L5.27777 2.7867C5.41063 2.2872 5.90225 1.97126 6.4118 2.0579L8.73987 2.45375C9.0435 2.50538 9.35399 2.41422 9.58151 2.20663L11.326 0.614964Z" fill="#5DA8FF"/>
<path d="M10.7747 15.0956L7.8291 12.15L8.64023 11.3389L10.7747 13.4734L15.3592 8.88887L16.1704 9.7L10.7747 15.0956Z" fill="white"/>
</svg>
