<svg width="24" height="24" viewBox="0 0 24 24" fill="none" xmlns="http://www.w3.org/2000/svg">
<path d="M11.663 0.984326C11.8539 0.810141 12.1461 0.810141 12.337 0.984326L14.0815 2.57599C14.4228 2.88737 14.8885 3.02412 15.3439 2.94668L17.672 2.55083C17.9268 2.50751 18.1726 2.66548 18.239 2.91522L18.8461 5.19735C18.9648 5.64382 19.2827 6.01065 19.7077 6.19173L21.8802 7.11737C22.118 7.21867 22.2393 7.48446 22.1602 7.73047L21.4371 9.97851C21.2956 10.4183 21.3647 10.8988 21.6243 11.2809L22.9515 13.2341C23.0968 13.4479 23.0552 13.7371 22.8556 13.9013L21.0319 15.4015C20.6751 15.695 20.4734 16.1365 20.4853 16.5983L20.5458 18.959C20.5524 19.2174 20.3611 19.4382 20.1044 19.4684L17.7591 19.7445C17.3003 19.7985 16.892 20.0609 16.6522 20.4559L15.4268 22.4745C15.2927 22.6954 15.0124 22.7778 14.7801 22.6644L12.6579 21.6287C12.2427 21.4261 11.7573 21.4261 11.3421 21.6287L9.21988 22.6644C8.98763 22.7778 8.70727 22.6954 8.57317 22.4745L7.34777 20.4559C7.10805 20.0609 6.69971 19.7985 6.24089 19.7445L3.8956 19.4684C3.63894 19.4382 3.4476 19.2174 3.45422 18.959L3.51472 16.5983C3.52656 16.1365 3.32492 15.695 2.96814 15.4015L1.14441 13.9013C0.944829 13.7371 0.903246 13.4479 1.04849 13.2341L2.37568 11.2809C2.63533 10.8988 2.70441 10.4183 2.56294 9.97851L1.83979 7.73047C1.76066 7.48446 1.88204 7.21867 2.11979 7.11737L4.2923 6.19174C4.71732 6.01065 5.03518 5.64382 5.15393 5.19735L5.76097 2.91522C5.8274 2.66548 6.07321 2.50751 6.32798 2.55083L8.65605 2.94668C9.1115 3.02412 9.57723 2.88737 9.91851 2.57599L11.663 0.984326Z" stroke="#5DA8FF"/>
<path d="M10.7747 15.0956L7.8291 12.15L8.64023 11.3389L10.7747 13.4734L15.3592 8.88889L16.1704 9.70001L10.7747 15.0956Z" fill="white"/>
</svg>
